<?xml version='1.0' encoding='iso-8859-1'?>
<svg version="1.1" xmlns="http://www.w3.org/2000/svg" viewBox="0 0 463 463" xmlns:xlink="http://www.w3.org/1999/xlink" enable-background="new 0 0 463 463">
  <g>
    <path d="m149.951,230.498c-2.929,2.929-2.929,7.678 0,10.606l30.943,30.943-30.943,30.943c-2.929,2.929-2.929,7.678 0,10.606 1.464,1.464 3.384,2.197 5.303,2.197s3.839-0.732 5.303-2.197l30.943-30.943 30.943,30.943c1.464,1.464 3.384,2.197 5.303,2.197s3.839-0.732 5.303-2.197c2.929-2.929 2.929-7.678 0-10.606l-30.943-30.943 30.943-30.943c2.929-2.929 2.929-7.678 0-10.606-2.929-2.929-7.678-2.929-10.606,0l-30.943,30.943-30.943-30.943c-2.929-2.929-7.678-2.929-10.606,2.84217e-14z"/>
    <path d="m359.5,136c-7.768,0-15.358,1.124-22.677,3.303l-1.825-83.966c0-0.016-0.003-0.031-0.003-0.047-0.115-21.684-17.785-39.29-39.495-39.29-0.118,0-0.234,0.001-0.348,0.004-6.86-5.183-15.138-8.004-23.652-8.004-7.091,0-13.909,1.911-20,5.57-6.091-3.659-12.909-5.57-20-5.57-4.57,0-9.063,0.824-13.419,2.457-7.257-6.704-16.671-10.457-26.581-10.457s-19.324,3.753-26.581,10.457c-4.356-1.633-8.849-2.457-13.419-2.457-7.091,0-13.909,1.911-20,5.57-6.091-3.659-12.909-5.57-20-5.57-8.514,0-16.792,2.821-23.652,8.004-0.114-0.003-0.23-0.004-0.348-0.004-21.71,0-39.381,17.607-39.495,39.29 0,0.016-0.003,0.031-0.003,0.047l-7.866,361.852c-9.361,3.097-16.136,11.925-16.136,22.311 0,12.958 10.542,23.5 23.5,23.5h288c12.958,0 23.5-10.542 23.5-23.5 0-10.386-6.775-19.214-16.136-22.312l-1.31-60.24c5.857,1.353 11.861,2.052 17.945,2.052 43.836,0 79.5-35.664 79.5-79.5v-64c0.001-43.836-35.663-79.5-79.499-79.5zm-287.5-24h-10.227l1.065-49h0.662c4.687,0 8.5,3.813 8.5,8.5v40.5zm-10.553,15h10.553v8.5c0,12.958 10.542,23.5 23.5,23.5s23.5-10.542 23.5-23.5v-8.5h17v67.035c-3.725,4.189-6.18,9.324-7.125,14.84-6.082,1.043-11.715,3.905-16.11,8.3-5.8,5.8-8.911,13.573-8.759,21.889 0.149,8.212 3.474,15.978 9.362,21.866 4.416,4.417 10.279,7.879 16.387,10.571-6.107,2.691-11.97,6.154-16.387,10.571-5.888,5.888-9.213,13.653-9.362,21.866-0.151,8.316 2.959,16.089 8.759,21.889 4.395,4.395 10.027,7.256 16.11,8.299 1.043,6.083 3.904,11.715 8.3,16.11 11.896,11.897 31.526,11.627 43.755-0.603 2.11-2.11 3.997-4.557 5.691-7.196 2.449,15.357 6.888,32.129 14.422,44.879 1.4,2.369 3.898,3.686 6.464,3.686 1.297,0 2.611-0.336 3.809-1.044 3.566-2.107 4.749-6.707 2.642-10.272-4.783-8.094-8.142-18.364-10.448-28.707 6.014,5.327 13.535,8.007 20.994,8.007 7.777,0 15.482-2.909 21.323-8.749 4.396-4.395 7.257-10.028 8.299-16.11 6.083-1.042 11.715-3.904 16.11-8.299 11.897-11.897 11.627-31.526-0.603-43.755-4.417-4.417-10.279-7.879-16.386-10.57 6.107-2.692 11.97-6.154 16.386-10.571 5.888-5.888 9.213-13.653 9.362-21.866 0.151-8.316-2.959-16.089-8.759-21.889-4.396-4.396-10.028-7.257-16.11-8.3-1.042-6.083-3.904-11.715-8.299-16.11-5.8-5.8-13.589-8.936-21.889-8.759-8.212,0.149-15.978,3.474-21.866,9.362-4.417,4.416-7.879,10.279-10.571,16.387-2.254-5.114-5.057-10.045-8.5-14.111v-68.646h82.234c3.138,9.29 11.93,16 22.266,16s19.128-6.71 22.266-16h11.787l6.283,289h-272.672l6.282-289zm202.553-15h-81v-40.5c0-4.687 3.813-8.5 8.5-8.5s8.5,3.813 8.5,8.5c0,12.958 10.542,23.5 23.5,23.5s23.5-10.542 23.5-23.505c0-4.684 3.811-8.495 8.495-8.495 4.689,0 8.505,3.813 8.505,8.5v40.5zm-86.689,102.805c2.787,6.046 5.167,13.644 6.831,22.077 0.694,3.514 3.776,6.047 7.358,6.047s6.664-2.533 7.358-6.047c2.94-14.893 8.106-27.195 13.819-32.908 6.381-6.381 16.493-6.652 22.542-0.602 3.1,3.099 4.665,7.484 4.294,12.031-0.179,2.194 0.615,4.356 2.172,5.913 1.557,1.556 3.722,2.351 5.913,2.171 4.547-0.366 8.931,1.194 12.031,4.294 6.049,6.049 5.778,16.161-0.603,22.542-5.713,5.713-18.015,10.879-32.907,13.819-3.514,0.694-6.047,3.776-6.047,7.358s2.533,6.664 6.047,7.358c14.893,2.94 27.194,8.106 32.907,13.819 6.381,6.381 6.652,16.494 0.603,22.542-3.1,3.1-7.484,4.667-12.031,4.293-2.194-0.18-4.357,0.615-5.914,2.172-1.557,1.557-2.351,3.719-2.172,5.914 0.371,4.546-1.194,8.931-4.293,12.031-6.048,6.048-16.161,5.778-22.542-0.603-5.713-5.713-10.879-18.015-13.819-32.907-0.694-3.514-3.776-6.047-7.358-6.047s-6.664,2.533-7.358,6.047c-2.94,14.892-8.106,27.194-13.819,32.907-6.381,6.38-16.494,6.651-22.542,0.603-3.1-3.1-4.665-7.485-4.294-12.031 0.179-2.194-0.615-4.356-2.171-5.913-1.557-1.556-3.717-2.349-5.913-2.172-4.545,0.372-8.931-1.194-12.031-4.294-6.049-6.049-5.778-16.161 0.603-22.542 5.713-5.713 18.015-10.879 32.907-13.819 3.514-0.694 6.047-3.776 6.047-7.358s-2.533-6.664-6.047-7.358c-14.893-2.94-27.194-8.106-32.907-13.819-6.381-6.381-6.651-16.493-0.603-22.542 3.099-3.1 7.479-4.662 12.031-4.294 2.192,0.177 4.356-0.615 5.913-2.172 1.256-1.256 2.005-2.908 2.157-4.651 4.202,3.926 9.837,6.336 16.028,6.336 7.115,0 13.497-3.183 17.81-8.195zm-41.311-102.805h-17v-40.5c0-4.687 3.813-8.5 8.5-8.5s8.5,3.813 8.5,8.5v40.5zm184.161-49.033l1.066,49.033h-10.227v-40.5c0-4.687 3.813-8.5 8.5-8.5 0.223,0 0.443-0.014 0.661-0.033zm17.79,128.215c5.948-5.276 13.577-8.182 21.549-8.182 17.92,0 32.5,14.58 32.5,32.5v64c0,17.92-14.58,32.5-32.5,32.5-6.849,0-13.541-2.186-19.057-6.18l-2.492-114.638zm-250.469-160.182c0.114,0.004 0.45,0.049 0.694,0.083 0.462,0.063 0.924,0.123 1.393,0.163 2.065,0.176 4.107-0.51 5.646-1.893 4.564-4.097 10.347-6.353 16.285-6.353 5.515,0 10.801,1.916 15.287,5.539 2.749,2.221 6.677,2.221 9.426,0 4.486-3.623 9.772-5.539 15.287-5.539 3.939,0 7.847,1.04 11.614,3.091 3.182,1.733 7.146,0.944 9.421-1.875 4.731-5.857 11.643-9.216 18.965-9.216s14.234,3.359 18.964,9.216c2.276,2.818 6.241,3.607 9.421,1.875 3.768-2.051 7.676-3.091 11.615-3.091 5.515,0 10.801,1.916 15.287,5.539 2.749,2.221 6.677,2.221 9.426,0 4.486-3.623 9.772-5.539 15.287-5.539 5.938,0 11.721,2.256 16.284,6.353 1.54,1.383 3.584,2.069 5.646,1.893 0.469-0.04 0.931-0.1 1.393-0.163 0.245-0.034 0.58-0.079 0.677-0.083 10.9,0 20.156,7.157 23.327,17.017-12.647,0.358-22.827,10.751-22.827,23.483v48c0,4.687-3.813,8.5-8.5,8.5s-8.5-3.813-8.5-8.5v-48c0-12.958-10.544-23.5-23.505-23.5-12.955,0-23.495,10.54-23.495,23.5 0,4.687-3.813,8.5-8.5,8.5s-8.5-3.813-8.5-8.5c0-12.958-10.542-23.5-23.5-23.5s-23.5,10.542-23.5,23.5v128c0,4.687-3.813,8.5-8.5,8.5s-8.5-3.813-8.5-8.5v-128c0-12.958-10.542-23.5-23.5-23.5s-23.5,10.542-23.5,23.5v64c0,4.687-3.813,8.5-8.5,8.5s-8.5-3.813-8.5-8.5v-64c0-12.732-10.18-23.125-22.827-23.483 3.17-9.86 12.424-17.017 23.309-17.017zm248.018,417h-288c-4.687,0-8.5-3.813-8.5-8.5s3.813-8.5 8.5-8.5h288c4.687,0 8.5,3.813 8.5,8.5s-3.813,8.5-8.5,8.5zm88.5-168.5c0,35.565-28.935,64.5-64.5,64.5-6.24,0-12.374-0.891-18.284-2.635l-.396-18.208c5.868,2.508 12.226,3.843 18.68,3.843 26.191,0 47.5-21.309 47.5-47.5v-64c0-26.191-21.309-47.5-47.5-47.5-7.722,0-15.221,1.872-21.936,5.373l-.4-18.395c7.128-2.636 14.623-3.977 22.336-3.977 35.565,0 64.5,28.935 64.5,64.5v63.999z"/>
  </g>
</svg>
