<?xml version="1.0" encoding="iso-8859-1"?>
<!-- Generator: Adobe Illustrator 18.0.0, SVG Export Plug-In . SVG Version: 6.00 Build 0)  -->
<!DOCTYPE svg PUBLIC "-//W3C//DTD SVG 1.1//EN" "http://www.w3.org/Graphics/SVG/1.1/DTD/svg11.dtd">
<svg version="1.1" id="Capa_1" xmlns="http://www.w3.org/2000/svg" xmlns:xlink="http://www.w3.org/1999/xlink" x="0px" y="0px"
	 viewBox="0 0 52.476 52.476" style="enable-background:new 0 0 52.476 52.476;" xml:space="preserve">
<g>
	<path d="M11.289,28.749c3.035-1.733,7.008-1.732,10.043-0.005c3.009-1.726,6.947-1.729,9.957-0.004
		c3.009-1.723,6.945-1.723,9.954,0.002c1.51-0.862,3.212-1.313,4.996-1.313c0.987,0,1.952,0.143,2.873,0.414
		c-0.605-3.826-3.364-6.957-7.117-8.019c0.162-0.616,0.244-1.25,0.244-1.895c0-4.034-3.201-7.334-7.197-7.494
		c0.082-0.468,0.123-0.939,0.123-1.413c0-4.949-3.516-8.976-7.836-8.976h-1.139c-4.321,0-7.837,4.026-7.837,8.976
		c0,0.473,0.041,0.944,0.122,1.412c-4.013,0.14-7.235,3.448-7.235,7.495c0,0.569,0.063,1.129,0.188,1.675
		c-4.164,0.761-7.391,4.086-8.056,8.241c0.927-0.273,1.899-0.416,2.893-0.416C8.059,27.429,9.771,27.881,11.289,28.749z
		 M38.531,23.656c0.391-0.391,1.023-0.391,1.414,0l1,1c0.391,0.391,0.391,1.023,0,1.414c-0.195,0.195-0.451,0.293-0.707,0.293
		s-0.512-0.098-0.707-0.293l-1-1C38.141,24.679,38.141,24.046,38.531,23.656z M31.445,26.07c-0.195,0.195-0.451,0.293-0.707,0.293
		s-0.512-0.098-0.707-0.293l-1-1c-0.391-0.391-0.391-1.023,0-1.414s1.023-0.391,1.414,0l1,1
		C31.836,25.046,31.836,25.679,31.445,26.07z M32.862,16.447c0.144,0.532-0.171,1.082-0.704,1.226l-4.316,1.168
		c-0.087,0.024-0.175,0.035-0.262,0.035c-0.441,0-0.844-0.293-0.965-0.739c-0.144-0.532,0.171-1.082,0.704-1.226l4.316-1.168
		C32.169,15.594,32.718,15.912,32.862,16.447z M26.81,3.076c0.534-0.134,1.079,0.19,1.213,0.728l1,4
		c0.134,0.535-0.192,1.078-0.728,1.212c-0.082,0.021-0.163,0.03-0.244,0.03c-0.448,0-0.855-0.303-0.969-0.758l-1-4
		C25.948,3.753,26.274,3.21,26.81,3.076z M21.531,11.884c0.391-0.391,1.023-0.391,1.414,0l1,1c0.391,0.391,0.391,1.023,0,1.414
		c-0.195,0.195-0.451,0.293-0.707,0.293s-0.512-0.098-0.707-0.293l-1-1C21.141,12.907,21.141,12.275,21.531,11.884z M20.949,19.303
		c0.032-0.551,0.497-0.966,1.058-0.938c0.551,0.032,0.972,0.506,0.938,1.058l-0.084,1.412c-0.031,0.531-0.472,0.94-0.997,0.94
		c-0.02,0-0.04-0.001-0.061-0.002c-0.551-0.032-0.972-0.506-0.938-1.058L20.949,19.303z M10.29,22.272
		c0.175-0.523,0.74-0.809,1.265-0.632l3,1c0.524,0.174,0.807,0.74,0.632,1.265c-0.14,0.419-0.53,0.684-0.949,0.684
		c-0.104,0-0.211-0.017-0.316-0.052l-3-1C10.398,23.363,10.115,22.796,10.29,22.272z"/>
	<path d="M51.942,31.77c-1.525-1.51-3.551-2.341-5.704-2.341c-1.836,0-3.579,0.604-4.999,1.719
		c-1.413-1.114-3.148-1.719-4.976-1.719c-1.827,0-3.562,0.604-4.975,1.718c-1.413-1.114-3.147-1.718-4.975-1.718
		c-1.829,0-3.564,0.604-4.978,1.72c-1.426-1.115-3.177-1.72-5.022-1.72c-1.846,0-3.599,0.605-5.025,1.723
		c-1.426-1.117-3.179-1.723-5.025-1.723c-2.162,0-4.195,0.83-5.727,2.339L0,32.297l9.594,17.641
		c0.605,1.493,2.082,2.491,3.697,2.491h25.895c1.615,0,3.092-0.998,3.697-2.491l9.593-17.639L51.942,31.77z M15.501,48.394
		c-0.088,0.024-0.177,0.035-0.264,0.035c-0.44,0-0.843-0.292-0.964-0.737l-3-11c-0.145-0.532,0.169-1.082,0.702-1.228
		c0.53-0.15,1.082,0.169,1.228,0.702l3,11C16.348,47.699,16.034,48.249,15.501,48.394z M22.329,48.424
		c-0.031,0.003-0.061,0.004-0.091,0.004c-0.512,0-0.948-0.391-0.995-0.909l-1-10.999c-0.05-0.55,0.355-1.037,0.906-1.087
		c0.556-0.045,1.036,0.356,1.086,0.905l1,10.999C23.284,47.888,22.879,48.375,22.329,48.424z M31.234,47.519
		c-0.047,0.519-0.483,0.909-0.995,0.909c-0.03,0-0.061-0.001-0.091-0.004c-0.55-0.05-0.956-0.536-0.906-1.087l1-10.999
		c0.05-0.549,0.535-0.952,1.086-0.905c0.55,0.05,0.956,0.537,0.906,1.087L31.234,47.519z M41.203,36.692l-3,10.999
		c-0.122,0.445-0.524,0.737-0.964,0.737c-0.087,0-0.175-0.011-0.264-0.035c-0.533-0.146-0.847-0.695-0.702-1.228l3-10.999
		c0.146-0.533,0.693-0.847,1.228-0.702C41.034,35.61,41.348,36.16,41.203,36.692z"/>
</g>
<g>
</g>
<g>
</g>
<g>
</g>
<g>
</g>
<g>
</g>
<g>
</g>
<g>
</g>
<g>
</g>
<g>
</g>
<g>
</g>
<g>
</g>
<g>
</g>
<g>
</g>
<g>
</g>
<g>
</g>
</svg>
