<?xml version="1.0" encoding="iso-8859-1"?>
<!-- Generator: Adobe Illustrator 19.0.0, SVG Export Plug-In . SVG Version: 6.00 Build 0)  -->
<svg version="1.1" id="Layer_1" xmlns="http://www.w3.org/2000/svg" xmlns:xlink="http://www.w3.org/1999/xlink" x="0px" y="0px"
	 viewBox="0 0 511.998 511.998" style="enable-background:new 0 0 511.998 511.998;" xml:space="preserve">
<g>
	<g>
		<path 
      	style="fill:#BDBDBD"
		d="M510.91,368.497c-1.444-2.493-4.107-4.028-6.988-4.028h-74.708c20.254-19.811,31.85-46.922,31.85-76.106
			c0-58.839-47.868-106.708-106.707-106.708c-4.085,0-8.272,0.266-12.477,0.76c-2.949-3.085-6.155-5.906-9.571-8.414
			c-1.408-1.033-2.872-2.028-4.377-2.971c-0.827-0.943-1.873-1.695-3.069-2.174l-2.533-1.016c-3.994-2.046-8.185-3.725-12.465-4.997
			l-109.596-43.914c-3.422-1.371-7.336-0.252-9.516,2.718l-0.953,1.298l-40.073-29.414c4.729-12.435,0.826-27.012-10.407-35.257
			c-5.244-3.849-11.446-5.883-17.935-5.883c-9.632,0-18.783,4.632-24.481,12.391c-4.956,6.754-6.73,15.097-5.417,22.984
			c-5.393,0.747-10.483,2.945-14.723,6.299c-0.863-0.8-1.77-1.563-2.733-2.269c-5.242-3.849-11.444-5.883-17.934-5.883
			c-9.632,0-18.784,4.633-24.478,12.391c-4.958,6.753-6.734,15.097-5.42,22.985c-8.064,1.118-15.46,5.464-20.331,12.098
			c-9.897,13.486-6.976,32.513,6.511,42.416c5.244,3.848,11.445,5.881,17.934,5.881c6.876,0,13.507-2.359,18.81-6.533l40.084,29.421
			l-0.726,0.99c-2.18,2.97-2.074,7.04,0.258,9.893l10.107,12.357c-14.389,16.902-22.257,38.128-22.257,60.55
			c0,31.067,15.168,59,39.045,76.106H29.505c-2.882,0-5.544,1.535-6.988,4.028c-1.445,2.492-1.452,5.567-0.018,8.065l26.645,46.485
			v28.483c0,4.462,3.615,8.077,8.077,8.077h47.239c4.462,0,8.077-3.615,8.077-8.077c0-4.462-3.615-8.077-8.077-8.077H65.298v-14.479
			h402.457v14.479h-337.09c-4.462,0-8.077,3.615-8.077,8.077c0,4.462,3.615,8.077,8.077,8.077h345.167
			c4.462,0,8.077-3.615,8.077-8.077v-27.827l27.021-47.142C512.362,374.063,512.354,370.989,510.91,368.497z M198.045,139.017
			c0.003-0.004,0.006-0.01,0.01-0.014l2.017-2.748l104.143,41.728c0.245,0.098,0.495,0.184,0.75,0.258
			c3.533,1.027,6.992,2.413,10.28,4.121c0.234,0.121,0.472,0.23,0.716,0.328l0.555,0.223c0.334,0.274,0.691,0.521,1.07,0.741
			c0.303,0.175,0.603,0.352,0.904,0.533l-29.783,2.118l-58.8,4.182l-4.104-1.644l-49.71-19.918L198.045,139.017z M132.755,172.542
			c0.004-0.005,0.008-0.011,0.011-0.017l2.015-2.746l68.496,27.445l22.343,8.952l13.304,5.331c0.246,0.098,0.495,0.184,0.748,0.258
			c3.537,1.028,6.996,2.416,10.281,4.122c0.235,0.122,0.474,0.232,0.721,0.331l0.55,0.221c0.335,0.274,0.694,0.522,1.074,0.742
			c1.778,1.028,3.515,2.161,5.16,3.369c12.241,8.984,20.251,22.196,22.554,37.205c0.433,2.812,0.655,5.626,0.67,8.421
			c0.063,11.183-3.168,22.074-9.407,31.505c-0.52,0.786-1.061,1.562-1.622,2.327c-10.669,14.535-27.822,23.214-45.884,23.216
			c-12.146,0-23.758-3.812-33.583-11.022c-1.612-1.185-3.206-2.494-4.738-3.893c-0.012-0.011-0.023-0.021-0.033-0.03
			c-4.059-3.711-7.539-7.967-10.346-12.652c-0.202-0.337-0.428-0.657-0.676-0.962l-58.628-71.681
			c-0.001-0.001-0.002-0.002-0.003-0.003l-10.556-12.906l1.77-2.412c0.011-0.014,0.023-0.026,0.032-0.04L132.755,172.542z
			 M124.511,156.47l-15.576-11.433c1.932-0.946,3.776-2.072,5.472-3.405l14.706,10.794c-1.419,0.538-2.703,1.454-3.65,2.745
			L124.511,156.47z M86.211,112.838c-0.009-0.078-0.018-0.155-0.028-0.233c-0.039-0.318-0.067-0.634-0.115-0.952
			c-0.187-1.217-0.452-2.409-0.776-3.578c2.67-2.839,6.347-4.439,10.332-4.439c2.01,0,3.953,0.415,5.777,1.232
			c3.473,1.556,7.561,0.477,9.815-2.59c2.253-3.069,2.057-7.294-0.47-10.14c-4.4-4.961-4.745-12.446-0.82-17.796
			c2.704-3.683,6.882-5.796,11.458-5.796c3.028,0,5.924,0.951,8.376,2.752c6.307,4.629,7.673,13.526,3.043,19.834
			c-2.638,3.596-1.862,8.651,1.733,11.289l45.706,33.547l-7.828,10.666c-0.109,0.144-0.208,0.279-0.268,0.363l-8.096,11.03
			l-45.706-33.546c-1.44-1.056-3.113-1.566-4.773-1.566c-2.484,0-4.934,1.142-6.518,3.298c-2.702,3.681-6.876,5.792-11.45,5.792
			c-2.374,0-4.712-0.599-6.786-1.735l-3.05-2.239c-0.431-0.415-0.832-0.853-1.204-1.314
			C86.186,122.321,86.755,117.593,86.211,112.838z M98.76,191.553l-45.702-33.548c-1.44-1.056-3.113-1.567-4.773-1.567
			c-2.484,0-4.934,1.143-6.518,3.299c-2.704,3.682-6.879,5.795-11.457,5.795c-3.028,0-5.925-0.952-8.376-2.75
			c-6.306-4.63-7.673-13.528-3.046-19.835c2.701-3.679,6.873-5.788,11.447-5.788c2.01,0,3.954,0.415,5.778,1.232
			c3.477,1.556,7.562,0.477,9.815-2.592c2.252-3.069,2.055-7.294-0.472-10.14c-4.402-4.959-4.746-12.442-0.818-17.793
			c2.704-3.683,6.88-5.796,11.457-5.796c3.028,0,5.923,0.951,8.376,2.753c1.927,1.414,3.431,3.249,4.426,5.35
			c0.013,0.028,0.021,0.057,0.033,0.084c0.227,0.489,0.42,0.989,0.589,1.494c0.029,0.088,0.055,0.179,0.083,0.268
			c0.133,0.423,0.243,0.851,0.335,1.283c0.024,0.112,0.047,0.223,0.068,0.336c0.086,0.46,0.151,0.922,0.191,1.387
			c0.005,0.056,0.013,0.113,0.017,0.169c0.165,2.21-0.185,4.444-1.047,6.512c-0.002,0.004-0.004,0.01-0.005,0.014
			c-0.216,0.519-0.466,1.027-0.747,1.522c-0.025,0.044-0.042,0.09-0.067,0.135c-0.255,0.438-0.53,0.867-0.834,1.282
			c-2.638,3.596-1.862,8.65,1.733,11.289l6.552,4.81c0.012,0.009,0.023,0.019,0.034,0.028l3.806,2.792
			c0.005,0.004,0.012,0.008,0.018,0.012l35.293,25.906l-7.844,10.69c-0.104,0.139-0.2,0.269-0.251,0.341L98.76,191.553z
			 M92.741,288.364c0-17.549,5.811-34.227,16.517-47.817l22.239,27.191l30.028,36.713c3.548,5.81,7.906,11.097,12.956,15.721
			c0.011,0.01,0.023,0.019,0.032,0.03c1.966,1.8,4.023,3.488,6.114,5.023c3.351,2.46,6.869,4.602,10.514,6.435
			c10.079,5.07,21.163,7.719,32.621,7.719c0.002,0,0.005,0,0.008,0c0.055,0,0.11-0.002,0.165-0.002
			c16.407-0.038,32.221-5.659,44.909-15.574c5.192-4.057,9.862-8.829,13.831-14.236c11.537-15.72,16.263-34.99,13.304-54.264
			c-2.957-19.274-13.244-36.243-28.964-47.78c-1.411-1.035-2.872-2.028-4.368-2.966c-0.057-0.066-0.113-0.129-0.172-0.192
			l78.653-5.595c0.183-0.013,0.365-0.032,0.547-0.057c4.285-0.6,8.552-0.905,12.681-0.905c49.93,0,90.553,40.622,90.553,90.554
			c0,31.039-15.461,59.324-41.474,76.106H155.859C119.242,357.624,92.741,325.729,92.741,288.364z M471.528,412.82H61.9
			l-18.456-32.197h111.685h250.632h84.221L471.528,412.82z"/>
	</g>
</g>
<g>
</g>
<g>
</g>
<g>
</g>
<g>
</g>
<g>
</g>
<g>
</g>
<g>
</g>
<g>
</g>
<g>
</g>
<g>
</g>
<g>
</g>
<g>
</g>
<g>
</g>
<g>
</g>
<g>
</g>
</svg>
