<?xml version="1.0" encoding="UTF-8"?>
<svg width="752pt" height="752pt" version="1.1" viewBox="0 0 752 752" xmlns="http://www.w3.org/2000/svg">
 <path d="m561.63 239.68c-19.074-32.07-49.273-52.148-82.848-55.082-32.41-2.832-64.145 10.676-86.844 37.043l-15.605 18.129-11.332-13.164c-39.707-46.141-102.25-54.742-145.41-20.102-26.684 21.43-43.242 53.555-46.629 90.461-3.4961 37.988 7.7969 75.227 30.996 102.17l23.957 27.75 139.01 137.02c2.6367 2.582 6.0117 3.875 9.3984 3.875s6.7695-1.2969 9.418-3.8945l138.92-136.91c0.26953-0.25 0.62109-0.62109 0.87109-0.91406l18.887-21.949c39.434-45.797 46.664-114.96 17.215-164.43z"/>
</svg>
