<?xml version="1.0" encoding="iso-8859-1"?>
<!-- Generator: Adobe Illustrator 19.0.0, SVG Export Plug-In . SVG Version: 6.00 Build 0)  -->
<svg version="1.1" id="Layer_1" xmlns="http://www.w3.org/2000/svg" xmlns:xlink="http://www.w3.org/1999/xlink" x="0px" y="0px"
	 viewBox="0 0 511.998 511.998" style="enable-background:new 0 0 511.998 511.998;" xml:space="preserve">
<g>
	<g>
		<g>
			<path d="M378.422,324.551c-3.978,0-7.717,1.548-10.528,4.361c-5.802,5.805-5.804,15.25-0.002,21.058
				c2.812,2.812,6.551,4.362,10.528,4.362c3.979,0,7.719-1.55,10.532-4.364c5.803-5.806,5.802-15.251,0.001-21.052
				C386.14,326.101,382.4,324.551,378.422,324.551z M379.231,340.243c-0.422,0.42-1.199,0.417-1.615,0.003
				c-0.445-0.443-0.445-1.167-0.001-1.611c0.208-0.207,0.51-0.332,0.805-0.332c0.296,0,0.598,0.124,0.81,0.336
				C379.672,339.08,379.672,339.8,379.231,340.243z"/>
			<path d="M287.584,320.496l-73.995,8.898c-4.394,0.528-7.528,4.519-7,8.914c0.489,4.07,3.947,7.058,7.947,7.058
				c0.32,0,0.642-0.02,0.967-0.059l73.995-8.897c4.394-0.528,7.528-4.52,7-8.914C295.97,323.101,291.973,319.95,287.584,320.496z"/>
			<path d="M210.22,291.725c-0.528-4.395-4.518-7.534-8.913-7.001l-17.826,2.142c-4.394,0.528-7.529,4.518-7,8.913
				c0.489,4.071,3.947,7.059,7.947,7.059c0.318,0,0.642-0.02,0.966-0.059l17.826-2.142
				C207.614,300.11,210.748,296.119,210.22,291.725z"/>
			<path d="M350.881,266.739l-119.988,14.429c-4.394,0.528-7.529,4.519-7,8.914c0.489,4.07,3.947,7.058,7.947,7.058
				c0.318,0,0.642-0.019,0.967-0.059l119.989-14.429c4.394-0.528,7.528-4.52,7-8.914
				C359.266,269.344,355.268,266.216,350.881,266.739z"/>
			<path d="M352.953,228.416c-0.529-4.394-4.529-7.526-8.914-7L156.052,244.02c-4.394,0.528-7.528,4.52-7,8.914
				c0.489,4.07,3.947,7.059,7.947,7.059c0.318,0,0.642-0.019,0.967-0.059l187.987-22.603
				C350.347,236.802,353.481,232.809,352.953,228.416z"/>
			<path d="M216.328,198.697c-0.529-4.395-4.522-7.539-8.914-7l-67.664,8.135c-4.394,0.528-7.528,4.519-7,8.914
				c0.489,4.07,3.948,7.058,7.947,7.058c0.32,0,0.642-0.019,0.967-0.059l67.664-8.135
				C213.721,207.082,216.856,203.091,216.328,198.697z"/>
			<path d="M235.375,204.42c0.318,0,0.642-0.019,0.966-0.059l67.869-8.159c4.394-0.528,7.528-4.519,7-8.914
				c-0.529-4.395-4.514-7.547-8.914-7l-67.868,8.159c-4.395,0.528-7.529,4.519-7,8.914
				C227.917,201.431,231.375,204.42,235.375,204.42z"/>
			<path d="M506.4,479.362l-36.279-36.282c-3.13-3.129-8.204-3.129-11.333,0c-3.131,3.131-3.131,8.204-0.001,11.333l36.282,36.284
				c0.788,0.785,0.905,1.705,0.905,2.183c0,0.479-0.117,1.4-0.906,2.188c-1.206,1.206-3.169,1.206-4.374,0l-89.378-89.378
				l10.734,1.986l28.571,28.571c3.131,3.129,8.204,3.129,11.334,0c3.13-3.131,3.13-8.204,0-11.334l-21.232-21.232
				c0.106-0.385,0.194-0.777,0.242-1.179c4.916-41.242-1.16-84.612-17.573-125.428c-0.138-0.344-0.305-0.669-0.484-0.983
				c-14.16-34.789-35.645-67.447-63.518-95.321c-52.89-52.889-123.414-83.222-193.488-83.222c-6.445,0-12.903,0.259-19.291,0.774
				c-1.064-30.558-9.084-62.749-23.393-93.671c-1.422-3.072-4.619-4.917-7.992-4.616c-3.371,0.303-6.188,2.693-7.039,5.97
				C95.042,18.13,87.85,33.29,77.258,50.219L34.928,7.89c-3.612-3.611-8.413-5.599-13.52-5.599c-5.107,0-9.908,1.989-13.519,5.599
				c-3.613,3.612-5.601,8.414-5.601,13.52s1.989,9.909,5.601,13.521L50.217,77.26C33.287,87.853,18.126,95.043,6.002,98.188
				c-3.276,0.849-5.667,3.667-5.97,7.039s1.544,6.571,4.616,7.992c30.895,14.296,63.124,22.328,93.67,23.394
				c-6.106,75.725,24.322,154.65,82.45,212.779c27.812,27.811,60.504,49.376,95.437,63.585c0.28,0.154,0.566,0.297,0.869,0.419
				c31.749,12.765,64.479,19.238,97.278,19.238c2.466,0,4.961-0.039,7.415-0.113c2.338-0.071,4.525-1.159,5.994-2.979
				c1.467-1.82,2.067-4.191,1.641-6.489l-1.5-8.105l91.457,91.458c3.727,3.726,8.623,5.591,13.519,5.591
				c4.896,0,9.792-1.864,13.52-5.591c3.612-3.613,5.6-8.415,5.6-13.523C512,487.772,510.011,482.97,506.4,479.362z M106.436,30.032
				c7.847,21.165,12.551,42.585,13.878,63.244L88.876,61.838C96.109,50.551,102.015,39.842,106.436,30.032z M30.033,106.437
				c9.809-4.421,20.514-10.324,31.801-17.557l25.151,25.149l6.286,6.286C72.62,118.987,51.187,114.277,30.033,106.437z
				 M19.222,23.599c-0.789-0.789-0.906-1.709-0.906-2.188c0-0.478,0.118-1.399,0.906-2.186c0.789-0.788,1.709-0.906,2.187-0.906
				s1.399,0.118,2.186,0.906l49.341,49.343l83.155,83.155l-7.808,0.938L19.222,23.599z M274.94,395.036
				c-30.216-13.365-58.491-32.636-82.838-56.983c-54-53.999-82.673-126.847-78.042-196.949l15.092,15.092
				c-2.074,1.677-3.271,4.345-2.929,7.188c0.489,4.07,3.947,7.058,7.947,7.058c0.318,0,0.642-0.019,0.967-0.059l100.664-12.102
				c4.395-0.528,7.529-4.519,7-8.914c-0.529-4.394-4.52-7.539-8.913-7l-57.561,6.92l-35.226-35.226
				c4.91-0.324,9.858-0.486,14.798-0.486c65.855,0,132.247,28.622,182.153,78.528c24.425,24.425,43.649,52.706,56.973,82.839
				c-27.999,8.976-53.632,24.577-74.568,45.514C299.518,341.395,283.916,367.031,274.94,395.036z M378.863,385.233
				c-0.005-0.001-0.01-0.001-0.015-0.001l-1.74-0.322c-0.325-0.06-0.651-0.099-0.977-0.119c-1.626-0.097-3.235,0.302-4.615,1.133
				c-0.552,0.332-1.069,0.733-1.536,1.199c-1.262,1.262-2.036,2.893-2.264,4.618c-0.067,0.505-0.099,1.017-0.068,1.533
				c0.019,0.325,0.059,0.651,0.12,0.976l0.392,2.12l3.74,20.215c-2.031-0.021-4.064-0.069-6.096-0.145
				c-0.004-0.001-0.011-0.002-0.018-0.002c-2-0.075-4.002-0.176-6.002-0.302c-0.068-0.004-0.136-0.01-0.204-0.014
				c-23.611-1.513-47.125-6.652-69.765-15.047c8.136-26.031,22.552-49.86,41.977-69.283c19.419-19.42,43.246-33.835,69.27-41.972
				c3.505,9.457,6.457,19.052,8.793,28.742c0.012,0.05,0.025,0.1,0.036,0.15c0.489,2.036,0.948,4.076,1.385,6.117
				c0.056,0.264,0.113,0.527,0.169,0.791c0.387,1.838,0.747,3.678,1.091,5.521c0.081,0.437,0.165,0.875,0.244,1.312
				c0.305,1.683,0.586,3.367,0.853,5.053c0.091,0.57,0.184,1.139,0.27,1.709c0.239,1.576,0.456,3.154,0.664,4.733
				c0.086,0.653,0.175,1.306,0.255,1.959c0.188,1.529,0.354,3.059,0.512,4.591c0.07,0.68,0.146,1.359,0.211,2.039
				c0.147,1.557,0.27,3.115,0.386,4.674c0.047,0.633,0.102,1.265,0.143,1.898c0.111,1.689,0.198,3.38,0.271,5.069
				c0.021,0.485,0.051,0.971,0.069,1.456c0.075,1.986,0.123,3.973,0.145,5.959c0.002,0.177,0.009,0.355,0.011,0.532
				c0.063,6.669-0.166,13.328-0.696,19.959L378.863,385.233z"/>
		</g>
	</g>
</g>
<g>
</g>
<g>
</g>
<g>
</g>
<g>
</g>
<g>
</g>
<g>
</g>
<g>
</g>
<g>
</g>
<g>
</g>
<g>
</g>
<g>
</g>
<g>
</g>
<g>
</g>
<g>
</g>
<g>
</g>
</svg>
