<?xml version="1.0" encoding="iso-8859-1"?>
<!-- Generator: Adobe Illustrator 19.0.0, SVG Export Plug-In . SVG Version: 6.00 Build 0)  -->
<svg version="1.1" id="Layer_1" xmlns="http://www.w3.org/2000/svg" xmlns:xlink="http://www.w3.org/1999/xlink" x="0px" y="0px"
	 viewBox="0 0 330 330" style="enable-background:new 0 0 330 330;" xml:space="preserve">
<path id="XMLID_239_" d="M279.115,157.82c0.841-4.393-0.322-8.931-3.172-12.378c-2.85-3.447-7.088-5.442-11.561-5.442h-4.454
	c0.043-1.66,0.071-3.325,0.071-5c0-32.188-7.742-64.303-21.241-88.109C221.613,16.653,195.418,0,165,0s-56.613,16.653-73.759,46.891
	C77.742,70.697,70,102.812,70,135c0,1.675,0.028,3.341,0.071,5h-4.454c-4.473,0-8.711,1.996-11.561,5.442
	c-2.85,3.447-4.013,7.985-3.172,12.378c6.387,33.363,20.613,59.753,41.517,77.385C77.856,255.201,70,282.825,70,315
	c0,8.284,6.716,15,15,15h160c8.284,0,15-6.716,15-15c0-32.175-7.856-59.799-22.402-79.795
	C258.502,217.573,272.728,191.183,279.115,157.82z M100,135c0-42.207,17.311-105,65-105s65,62.793,65,105
	c0,1.679-0.029,3.345-0.08,5H100.08C100.029,138.345,100,136.679,100,135z M84.929,170H243.84c0.008,0,0.017,0.001,0.025,0.001
	c0.011,0,0.02-0.001,0.031-0.001h1.176c-5.747,17.46-15.966,35.924-34.087,47.645h-91.969C100.896,205.924,90.676,187.46,84.929,170
	z M100.696,300c2.132-22.204,9.116-40.305,20.232-52.355h88.143c11.116,12.049,18.101,30.151,20.232,52.355H100.696z"/>
<g>
</g>
<g>
</g>
<g>
</g>
<g>
</g>
<g>
</g>
<g>
</g>
<g>
</g>
<g>
</g>
<g>
</g>
<g>
</g>
<g>
</g>
<g>
</g>
<g>
</g>
<g>
</g>
<g>
</g>
</svg>
