<?xml version="1.0" encoding="UTF-8"?>
<svg width="752pt" height="752pt" version="1.1" viewBox="0 0 752 752" xmlns="http://www.w3.org/2000/svg">
 <defs>
  <clipPath id="a">
   <path d="m139.21 169h473.58v414h-473.58z"/>
  </clipPath>
 </defs>
 <g clip-path="url(#a)">
  <path d="m473.64 169.03c-48.879 0-79.73 23.789-97.637 45.297-17.906-21.512-48.754-45.297-97.652-45.297-83.234 0-139.14 77.105-139.14 149.11 0 104.83 201.36 245.32 224.32 260.99 3.7617 2.5625 8.1172 3.8438 12.473 3.8438s8.7148-1.2852 12.473-3.8438c22.961-15.676 224.32-156.17 224.32-260.99 0-72.008-55.918-149.11-139.15-149.11zm-97.648 364.86c-79.293-56.395-192.53-157.33-192.53-215.74 0-43.961 32.977-104.86 94.887-104.86 56.316 0 76.199 48.637 76.965 50.562 3.2344 8.543 11.422 14.133 20.559 14.207h0.15625c9.0781 0 17.266-5.6211 20.609-14.062 0.81641-2.0742 20.703-50.711 77.004-50.711 61.914 0 94.902 60.895 94.902 104.86-0.003907 58.348-113.25 159.31-192.55 215.75z"/>
 </g>
</svg>
