<?xml version="1.0" encoding="iso-8859-1"?>
<!-- Generator: Adobe Illustrator 19.0.0, SVG Export Plug-In . SVG Version: 6.00 Build 0)  -->
<svg version="1.1" id="Layer_1" xmlns="http://www.w3.org/2000/svg" xmlns:xlink="http://www.w3.org/1999/xlink" x="0px" y="0px"
	 viewBox="0 0 253.84 253.84" style="enable-background:new 0 0 253.84 253.84;" xml:space="preserve">
<g>
	<g>
		<g>
			<path d="M78.466,32.096c1.392,2.028,2.948,3.94,4.692,6.252c2.16-8.936,4.24-17.428,6.248-25.936
				c0.34-1.44-0.08-2.08-1.548-2.436c-0.08-0.02-0.16-0.036-0.248-0.056c-5.484-1.128-10.812-0.28-15.94,1.688
				c-4.06,1.556-4.632,3.148-2.336,6.84C72.222,23.1,75.366,27.588,78.466,32.096z M70.258,14.976
				c0.012-0.02,0.24-0.484,2.224-1.244c5.252-2.016,10.048-2.536,14.656-1.588c-1.472,6.236-2.984,12.464-4.536,18.868L82.07,33.2
				c-0.612-0.804-1.192-1.596-1.74-2.388l-1.288-1.872c-2.616-3.796-5.324-7.724-7.784-11.68
				C70.162,15.496,70.258,14.976,70.258,14.976z"/>
			<path d="M89.258,37.384c6.412-3.448,12.844-6.856,19.204-10.4c2.208-1.232,2.572-2.736,1.096-4.708
				c-3.496-4.656-7.944-8.156-13.532-10.016c-0.272-0.092-0.516-0.164-0.732-0.216c-1.304-0.316-1.684,0.104-2.304,1.676
				c-3.184,8.04-4.784,16.516-6.992,25.26C87.318,38.336,88.306,37.892,89.258,37.384z M89.738,33.16
				c1.548-6.52,3.008-12.676,5.356-18.604c0.028-0.068,0.052-0.132,0.076-0.188c0.044,0.016,0.088,0.028,0.136,0.044
				c4.876,1.624,9.06,4.728,12.432,9.224c0.356,0.472,0.42,0.72,0.444,0.732c-0.04,0.06-0.22,0.292-0.828,0.632
				c-4.876,2.716-9.884,5.4-14.728,8l-3.264,1.752C89.486,34.22,89.614,33.692,89.738,33.16z"/>
			<path d="M77.57,45.48c-6.288,3.384-12.596,6.728-18.832,10.208c-2.116,1.18-2.4,2.64-0.96,4.616
				c1.136,1.56,2.504,2.996,3.952,4.28c2.856,2.536,5.952,4.756,9.716,5.788c0.12,0.032,0.236,0.064,0.348,0.092
				c1.46,0.352,1.896,0.072,2.488-1.516c0.948-2.536,1.916-5.08,2.6-7.696c1.5-5.748,2.824-11.54,4.276-17.536
				C79.862,44.348,78.694,44.872,77.57,45.48z M74.686,60.676c-0.616,2.352-1.504,4.736-2.368,7.04l-0.16,0.432
				c-0.008,0.02-0.012,0.036-0.02,0.056l-0.092-0.024c-3.648-1-6.624-3.356-8.808-5.296c-1.448-1.284-2.664-2.604-3.624-3.92
				c-0.36-0.492-0.436-0.756-0.468-0.776c0.048-0.064,0.22-0.252,0.7-0.52c4.904-2.736,9.944-5.44,14.816-8.052l3.152-1.692
				l-0.112,0.472C76.694,52.628,75.742,56.632,74.686,60.676z"/>
			<path d="M65.49,49.256c4.58-2.324,9.1-4.768,13.992-7.344c-0.592-0.22-0.756-0.296-0.928-0.34
				c-7.9-2.02-15.804-4.012-23.692-6.076c-0.024-0.008-0.048-0.012-0.072-0.02c-1.296-0.312-1.948,0.228-2.336,1.316
				c-1.892,5.264-1.256,10.308,1.516,15.092c0.496,0.856,0.928,1.316,1.484,1.452c0.484,0.116,1.06-0.012,1.856-0.344
				C60.07,51.832,62.814,50.608,65.49,49.256z M56.094,51.028c-0.048-0.072-0.104-0.164-0.172-0.28
				c-2.492-4.304-2.952-8.556-1.412-13c5.656,1.48,11.32,2.92,16.984,4.364l1.864,0.476c-3.02,1.604-5.944,3.152-8.9,4.648
				c-2.336,1.184-4.888,2.348-8.036,3.664C56.29,50.952,56.178,50.996,56.094,51.028z"/>
			<path d="M100.354,34.224c-4.092,2.128-8.104,4.408-12.408,6.764c0.492,0.212,0.612,0.284,0.74,0.316
				c1.068,0.26,2.14,0.52,3.208,0.776c2.276,0.552,4.548,1.1,6.824,1.648c4.628,1.12,9.256,2.244,13.876,3.388
				c0.008,0,0.012,0.004,0.02,0.004c1.312,0.316,1.876-0.332,2.24-1.336c1.912-5.264,1.252-10.304-1.504-15.092
				c-0.492-0.856-0.924-1.324-1.48-1.456c-0.484-0.116-1.06,0.02-1.852,0.372C106.762,31.064,103.522,32.58,100.354,34.224z
				 M111.23,31.564c0.044,0.068,0.1,0.156,0.16,0.264c2.492,4.336,2.952,8.592,1.404,13.008c-4.508-1.116-9.024-2.216-13.54-3.304
				l-3.412-0.824l-1.864-0.452c2.5-1.384,4.948-2.728,7.424-4.016c2.772-1.44,5.804-2.888,9.544-4.552
				C111.058,31.632,111.154,31.596,111.23,31.564z"/>
			<path d="M56.466,33.172c3.512,0.892,7.032,1.752,10.588,2.612c4.288,1.036,8.628,2.072,13.072,3.144
				c-1.488-2.208-2.7-4.148-4.048-5.988c-3.424-4.692-6.848-9.384-10.396-13.98c-0.564-0.728-1.108-1.156-1.68-1.292
				c-0.728-0.176-1.496,0.108-2.4,0.82c-3.516,2.772-6.072,6.284-7.352,10.604C53.634,31.176,54.37,32.64,56.466,33.172z
				 M56.43,29.732c1.096-3.7,3.312-6.884,6.584-9.468c0.24-0.188,0.404-0.288,0.504-0.336c0.08,0.072,0.208,0.196,0.376,0.416
				c3.512,4.556,6.972,9.296,10.36,13.936c0.264,0.36,0.52,0.724,0.776,1.092l-1.024-0.248l-6.412-1.544
				c-3.548-0.86-7.06-1.72-10.564-2.608c-0.476-0.12-0.652-0.272-0.68-0.32C56.31,30.592,56.258,30.308,56.43,29.732z"/>
			<path d="M142.786,6.96l-0.088,0.012c-5.02,0.756-7.004,5.084-7.352,7.264l-3.148,19.66c-2.772-0.148-5.552-0.308-8.368-0.308
				c-0.78,0-1.564,0.012-2.344,0.024c-3.32-16.416-17.144-29.416-34.492-30.804c-20.836-1.652-39.14,13.244-41.668,33.908
				c-1.9,15.556,5.724,30.54,19.436,38.18c1.292,0.712,2.628,1.348,3.968,1.98l1.844,0.88l7.852,1.948l0.216,0.004
				c0.68,0.012,1.36,0.04,2.04,0.072c1.552,0.064,3.108,0.128,4.648,0.02c1.996-0.144,3.876-0.464,5.72-0.84
				c-0.084,1.364-0.276,2.692-0.6,3.968c-3.34,13.028-13.84,85.2-8.444,95.428c5.344,10.132,17.28,22.724,33.776,26.252
				c-0.92,14.312-2.476,27.944-2.992,30.032c-0.944,2.192-3.652,2.74-7.992,3.452c-1.68,0.272-3.432,0.568-4.916,0.972
				c-13.424,1.82-15.148,4.544-15.148,6.712c0,7.672,31.38,8.064,37.668,8.064c6.288,0,37.672-0.392,37.672-8.064
				c0-2.16-1.712-4.872-15.02-6.696c-1.688-0.436-3.396-0.72-5.036-0.988c-4.344-0.716-7.052-1.26-7.92-3.24
				c-0.536-2.24-1.816-15.62-2.58-29.804c22.316-3.496,33.296-21.3,36.136-26.7c5.8-11.02-4.796-81.192-8.444-95.424
				c-2.856-11.152,4.444-26.468,7.88-32.812c1.268-1.216,1.992-2.556,1.992-4.024c0-5.18-8.688-8.792-20.492-10.76
				c1.52-9.048,2.26-13.12,2.604-14.752c3.92-0.788,20.72-2.708,57.8-6l1.808-0.16V0L142.786,6.96z M143.246,10.904l2.564-0.272
				l0.42,5.66l-5.088-4.504C141.686,11.372,142.366,11.04,143.246,10.904z M139.266,14.868c0-0.02,0.112-0.6,0.46-1.312l5.04,4.464
				l-6.064,0.368L139.266,14.868z M138.33,20.684l7-0.424c-0.852,3.712-2.404,12.448-5.832,33.528
				c-2.064,0.224-4.236,0.412-6.556,0.548L138.33,20.684z M144.65,47.004c4.56,1.052,8.072,2.412,10.212,3.872
				c-2.972,0.904-6.728,1.744-11.24,2.396C143.99,51.044,144.33,48.956,144.65,47.004z M132.298,58.36
				c2.22-0.12,4.404-0.288,6.54-0.496c-2.264,13.972-5.264,32.78-9.296,58.232c-2.532,0.116-4.596-0.32-6.288-1.264L132.298,58.36z
				 M123.826,37.588c2.74,0,5.284,0.088,7.74,0.212l-0.82,5.116c-2.1-0.124-4.208-0.252-6.312-0.252c-0.74,0-1.48,0.044-2.224,0.064
				c0.068-1.724,0.012-3.428-0.144-5.104C122.646,37.608,123.218,37.588,123.826,37.588z M122.066,46.756l0.072-1.212
				c0.004-0.184,0.016-0.368,0.02-0.556c0.76-0.02,1.496-0.052,2.28-0.052c2.088,0,4.016,0.116,5.952,0.224l-1.496,9.348
				c-1.636,0.052-3.32,0.084-5.068,0.084c-1.316,0-2.584-0.02-3.836-0.048L122.066,46.756z M85.05,75.84
				c-1.392,0.096-2.796,0.036-4.2-0.028c-0.636-0.024-1.276-0.056-1.912-0.068l-6.824-1.648l-1.692-0.808
				c-1.26-0.592-2.516-1.188-3.732-1.86C54.398,64.576,47.558,51.14,49.266,37.196c2.268-18.544,18.7-31.908,37.412-30.428
				c18.636,1.456,32.812,17.944,31.56,36.724c-0.044,0.66-0.056,1.32-0.068,1.98l-1.656,7.364l-0.748,1.556
				c-1.016-0.048-1.996-0.112-2.964-0.176c0.068-0.164,0.144-0.324,0.2-0.496c0.756-2.364-0.052-3.724-2.452-4.444
				c-3.332-1-6.672-1.964-10.04-2.832c-1.68-0.432-3.364-0.848-5.052-1.256c-2.56-0.62-5.128-1.22-7.692-1.84
				c-0.08,0.136-0.164,0.272-0.244,0.412c0.776,1.188,1.512,2.408,2.336,3.56c0.864,1.208,1.74,2.408,2.608,3.616
				c-4.768-1.44-7.432-3.032-7.868-4.244c-0.472-0.876-0.232-0.704-1.16-2.784c0.004,0.128,0,0.348,0.004,0.508
				c-1.712,6.732-3.784,18.612-5.46,25.336c-0.428,1.724-0.104,2.476,1.42,2.844c0.144,0.036,0.296,0.064,0.46,0.092
				c3.688,0.632,7.284,0.496,10.784-0.28c0.128,0.844,0.272,1.684,0.34,2.52C89.09,75.344,87.142,75.692,85.05,75.84z
				 M110.842,53.032c-0.112,0.352-0.268,0.68-0.408,1.012c-5.804-0.492-10.652-1.276-14.524-2.192
				c-0.716-0.988-1.448-1.984-2.144-2.964l-1.528-2.136l2.684,0.644c1.676,0.404,3.352,0.82,5.02,1.248
				c2.92,0.752,5.988,1.62,9.956,2.808c0.92,0.276,1.084,0.544,1.084,0.544C111.014,52.056,111.054,52.368,110.842,53.032z
				 M90.302,70.184c-3.248,0.736-6.604,0.864-10.056,0.272c-0.032-0.004-0.064-0.012-0.096-0.016c0.012-0.044,0.02-0.088,0.032-0.14
				c1.384-5.544,2.796-11.08,4.208-16.62C86.514,58.024,89.038,64.012,90.302,70.184z M88.854,53.708
				c8.264,3.216,21.64,4.884,34.972,4.884c1.476,0,2.952-0.024,4.424-0.064l-1.844,11.52l-0.004-0.24l-0.296-1.128
				c-7.952,0.08-27.136,0.308-34.036-6.984C91.066,58.78,89.95,56.072,88.854,53.708z M94.322,83.92
				c1.48-5.78,0.62-12.324-1.068-18.392c7.64,4.864,20.84,5.448,29.284,5.448c1.388,0,2.636-0.016,3.724-0.028l-5.088,31.76
				c-12.472,0.264-24.964,2.316-31.284,5.98C91.43,98.068,93.034,88.952,94.322,83.92z M139.37,242.04
				c1.56,0.256,3.184,0.52,4.784,0.94l0.24,0.048c7.3,0.992,10.168,2.164,11.224,2.768c-2.744,1.584-13.944,4.044-33.216,4.044
				c-19.264,0-30.464-2.456-33.212-4.044c1.072-0.608,3.984-1.788,11.468-2.816c1.6-0.42,3.228-0.684,4.784-0.94
				c4.504-0.74,9.16-1.504,11.016-5.816c0.108-0.248,2.164-14.988,3.292-30.944c1.084,0.128,2.236,0.228,3.596,0.256l0.476,0.016
				l0.74-0.024c0.34-0.008,0.66-0.036,0.992-0.052c0.976,15.908,2.692,30.524,2.792,30.752
				C130.206,240.536,134.866,241.3,139.37,242.04z M162.114,176.492c-2.632,5.004-12.828,21.572-33.548,24.672
				c-1.24,0.212-2.612,0.332-4.084,0.364l-0.652,0.024l-0.652-0.024c-1.472-0.032-2.848-0.152-4.124-0.368
				c-16.428-2.46-28.32-14.828-33.508-24.672c-2.464-4.672-0.376-31.156,2.652-55.24c5.884,4.672,21.136,7.16,35.716,7.16
				c14.584,0,29.844-2.488,35.724-7.164C162.742,145.048,164.878,171.24,162.114,176.492z M159.282,118.572
				c-3.084,3.844-16.748,7.568-35.372,7.568c-18.636,0-32.308-3.728-35.376-7.576c0.304-2.356,0.616-4.68,0.936-6.948
				c4.052-3.296,15.724-6.284,31.34-6.64l-1.868,11.672l0.952,0.72c2.392,1.808,5.384,2.716,8.916,2.716
				c0.86,0,1.752-0.056,2.68-0.16l1.492-0.176l0.24-1.488c0.708-4.472,1.384-8.736,2.032-12.82c11.4,1.02,19.732,3.488,23.052,6.16
				C158.638,113.876,158.962,116.208,159.282,118.572z M153.33,83.92c1.284,5.016,2.94,14.116,4.536,24.72
				c-4.804-2.748-13.108-4.584-22.26-5.424c3.076-19.344,5.476-34.292,7.348-45.816c5.652-0.744,10.74-1.848,14.788-3.276h0.876
				C154.922,62.188,150.826,74.14,153.33,83.92z M163.078,46.088c0,1.08-1.944,2.544-5.704,3.952
				c-2.468-2.264-6.892-4.036-12.356-5.264c0.324-1.972,0.628-3.796,0.908-5.48C157.086,41.184,163.078,44.204,163.078,46.088z
				 M204.83,10.784L204.83,10.784c-40.308,3.592-52.404,5.148-56.3,5.908l-0.468-6.3l56.768-5.988V10.784z"/>
			<circle cx="96.082" cy="136.172" r="2.12"/>
			<circle cx="106.922" cy="166.072" r="2.12"/>
			<circle cx="119.522" cy="145.592" r="2.12"/>
			<circle cx="131.882" cy="178.072" r="2.12"/>
			<circle cx="148.322" cy="143.476" r="2.12"/>
			<circle cx="150.442" cy="168.172" r="2.12"/>
		</g>
	</g>
</g>
<g>
</g>
<g>
</g>
<g>
</g>
<g>
</g>
<g>
</g>
<g>
</g>
<g>
</g>
<g>
</g>
<g>
</g>
<g>
</g>
<g>
</g>
<g>
</g>
<g>
</g>
<g>
</g>
<g>
</g>
</svg>
