<?xml version="1.0" encoding="UTF-8"?>
<svg width="752pt" height="752pt" version="1.1" viewBox="0 0 752 752" xmlns="http://www.w3.org/2000/svg">
 <g>
  <path d="m524.71 203.14h-296.94c-19.418 0-35.52 16.102-35.52 35.52 0 19.418 16.102 35.52 35.52 35.52h296.93c19.418 0 35.52-16.102 35.52-35.52 0-19.418-16.102-35.52-35.516-35.52z"/>
  <path d="m227.77 411.52h154.86c19.418 0 35.52-16.102 35.52-35.52s-16.102-35.52-35.52-35.52l-154.86 0.003906c-19.418 0-35.52 16.102-35.52 35.52 0.003906 19.414 16.105 35.516 35.52 35.516z"/>
  <path d="m477.35 477.82h-249.58c-19.418 0-35.52 16.102-35.52 35.52 0 19.418 16.102 35.52 35.52 35.52h249.58c19.418 0 35.52-16.102 35.52-35.52 0-19.418-16.102-35.52-35.52-35.52z"/>
 </g>
</svg>
