<?xml version="1.0" encoding="UTF-8"?>
<svg width="752pt" height="752pt" version="1.1" viewBox="0 0 752 752" xmlns="http://www.w3.org/2000/svg">
 <path d="m501.5 214.98c-18.469 0-35.047 5.2109-49.727 13.734-8.5234-4.7344-17.523-8.5234-26.992-11.367 0.47266-3.3164 0.94531-6.1562 0.94531-9.4727 0-27.465-22.258-49.727-49.727-49.727-27.465 0-49.723 22.262-49.723 49.727 0 3.3164 0.47266 6.1562 0.94531 9.4727-23.68 7.5781-45.465 20.836-62.512 39.309-26.047 27.465-40.254 63.457-40.254 101.34v81.93c-19.418 6.1562-33.152 24.152-33.152 44.988 0 26.047 21.312 47.359 47.359 47.359h75.773c0 34.098 27.469 61.566 61.566 61.566s61.566-27.469 61.566-61.566h75.773c26.047 0 47.359-21.312 47.359-47.359 0-21.312-13.734-39.309-33.152-44.988v-34.098c40.727-11.367 71.039-48.777 71.039-93.297-0.003906-53.984-43.574-97.555-97.09-97.555zm-125.5-28.414c11.84 0 21.312 9.4727 21.312 21.312 0 0.94531 0 2.3672-0.47266 3.3164-2.8398-0.47266-5.6836-0.47266-8.5234-0.94531-0.94922-0.003906-1.8945-0.003906-2.8438-0.003906h-18.941-1.8945c-3.3164 0-6.6289 0.47266-9.4727 0.94531 0-0.94531-0.47266-2.3672-0.47266-3.3164 0-11.84 9.4688-21.309 21.309-21.309zm-123.13 171.43c0-30.309 11.367-59.672 32.203-81.93 22.258-23.68 53.988-37.414 86.664-37.414h8.0508c16.574 0 33.152 3.3164 48.305 9.9453-14.68 17.051-23.68 39.309-23.68 63.461 0 52.566 42.148 95.664 94.715 97.086v28.414h-246.26zm123.13 207.43c-18.469 0-33.152-14.68-33.152-33.152h66.301c0.003906 18.473-14.676 33.152-33.148 33.152zm156.28-80.508c0 10.418-8.5234 18.941-18.941 18.941h-274.68c-10.418 0-18.941-8.5234-18.941-18.941s8.5234-18.941 18.941-18.941h274.68c10.418-0.003906 18.941 8.5234 18.941 18.941zm-30.781-104.19c-37.887 0-68.668-30.781-68.668-68.668 0-37.891 30.781-68.672 68.668-68.672s68.668 30.781 68.668 68.668c0 37.887-30.781 68.672-68.668 68.672z"/>
</svg>
