<?xml version="1.0" encoding="iso-8859-1"?>
<!-- Generator: Adobe Illustrator 19.0.0, SVG Export Plug-In . SVG Version: 6.00 Build 0)  -->
<svg version="1.1" id="Layer_1" xmlns="http://www.w3.org/2000/svg" xmlns:xlink="http://www.w3.org/1999/xlink" x="0px" y="0px"
	 viewBox="0 0 512 512" style="enable-background:new 0 0 512 512;" xml:space="preserve">
<g>
	<g>
		<path d="M501.769,343.078c5.651,0,10.231-4.579,10.231-10.231V307.46c0-34.017-27.674-61.691-61.691-61.691h-19.758
			c9.845-10.936,15.848-25.394,15.848-41.233v-25.385c0-5.651-4.579-10.231-10.231-10.231h-19.867v-33.187h19.867
			c5.651,0,10.231-4.579,10.231-10.231v-25.385c0-34.018-27.675-61.693-61.695-61.693H183.139
			c-34.018,0-61.693,27.675-61.693,61.693v25.385c0,5.651,4.581,10.231,10.231,10.231h19.867v33.187h-19.867
			c-5.65,0-10.231,4.579-10.231,10.231v25.385c0,15.837,6.003,30.297,15.848,41.233h-75.6C27.676,245.769,0,273.444,0,307.462
			v25.385c0,5.652,4.581,10.231,10.231,10.231h19.867v33.188H10.231C4.581,376.266,0,380.845,0,386.496v25.385
			c0,34.018,27.676,61.695,61.693,61.695h388.616c34.017,0,61.691-27.674,61.691-61.691v-25.389c0-5.652-4.579-10.231-10.231-10.231
			h-19.871v-33.187H501.769z M141.907,115.271v-15.154c0-22.734,18.497-41.232,41.232-41.232h201.568
			c22.736,0,41.233,18.497,41.233,41.232v15.154h-19.867H161.774H141.907z M395.839,135.733v33.187H172.005v-33.187H395.839z
			 M141.907,189.382h19.867H406.07h19.867v15.154c0,22.736-18.497,41.233-41.233,41.233H183.139
			c-22.734,0-41.232-18.497-41.232-41.233V189.382z M20.462,322.616v-15.154c0-22.734,18.497-41.232,41.232-41.232h121.445h65.596
			h14.525c22.736,0,41.233,18.497,41.233,41.232v15.154h-19.867h-57.248h-30.102H40.329H20.462z M461.436,376.266H314.724h-19.867
			v-33.187h19.867h146.713V376.266z M274.395,343.078v33.187h-47.017h-30.102H50.559v-33.187h146.717h30.102H274.395z
			 M304.493,411.881c0,22.736-18.497,41.233-41.233,41.233h-14.525H61.693c-22.734,0-41.232-18.497-41.232-41.233v-15.154h19.867
			h156.948h30.102h57.248h19.867V411.881z M491.538,396.727v15.158h0c0,22.733-18.496,41.229-41.229,41.229H309.106
			c9.845-10.936,15.848-25.394,15.848-41.233v-15.154h146.713H491.538z M471.667,322.616H324.954v-15.154
			c0-15.837-6.003-30.296-15.848-41.232h75.6h65.604c22.732,0,41.228,18.496,41.228,41.229v15.157H471.667z"/>
	</g>
</g>
<g>
</g>
<g>
</g>
<g>
</g>
<g>
</g>
<g>
</g>
<g>
</g>
<g>
</g>
<g>
</g>
<g>
</g>
<g>
</g>
<g>
</g>
<g>
</g>
<g>
</g>
<g>
</g>
<g>
</g>
</svg>
