<?xml version="1.0" encoding="iso-8859-1"?>
<!-- Generator: Adobe Illustrator 19.0.0, SVG Export Plug-In . SVG Version: 6.00 Build 0)  -->
<svg version="1.1" id="Capa_1" xmlns="http://www.w3.org/2000/svg" xmlns:xlink="http://www.w3.org/1999/xlink" x="0px" y="0px"
	 viewBox="0 0 448.433 448.433" style="enable-background:new 0 0 448.433 448.433;" xml:space="preserve">
<g>
	<path d="M441.49,408.316l-26.687-26.687c-11.753-11.753-19.123-30.132-25.625-46.348c-5.188-12.939-10.089-25.16-16.833-33.548
		c-22.261-27.691-43.725-32.593-73.401-35.964l-19.98-19.98c0.889-5.358,5.669-43.266-31.327-69.652
		c-35.097-25.029-46.011-44.561-59.83-69.289c-18.749-33.551-50.631-41.084-76.249-47.138c-10.638-2.514-20.697-4.898-27.447-8.774
		L40.117,6.943c-6.848-6.849-16.662-8.801-25.61-5.094C5.559,5.556,0,13.875,0,23.56v401.373c0,12.958,10.542,23.5,23.5,23.5
		h401.373c9.686,0,18.004-5.559,21.711-14.507S448.339,415.165,441.49,408.316z M360.656,311.132
		c5.343,6.646,9.84,17.86,14.601,29.732c0.27,0.673,0.544,1.355,0.817,2.035l-59.248-59.248
		C334.523,287.386,347.017,294.168,360.656,311.132z M108.11,74.309c23.94,5.657,51.075,12.069,66.604,39.857
		c14.153,25.327,26.375,47.199,64.214,74.184c19.343,13.795,24.455,31.35,25.507,42.909L107.29,74.115
		C107.563,74.18,107.835,74.244,108.11,74.309z M432.726,428.186c-0.51,1.231-2.583,5.247-7.853,5.247H23.5
		c-4.687,0-8.5-3.813-8.5-8.5V23.56c0-5.27,4.016-7.343,5.247-7.853c0.58-0.24,1.843-0.672,3.406-0.672
		c1.754,0,3.887,0.544,5.857,2.515l374.686,374.686c0,0,0,0,0.001,0.001l0,0l26.686,26.686
		C434.61,422.649,433.236,426.955,432.726,428.186z"/>
	<path d="M204.803,243.629c-2.929-2.929-7.678-2.929-10.606,0l-144,144c-2.929,2.929-2.929,7.678,0,10.606
		c1.464,1.464,3.384,2.197,5.303,2.197s3.839-0.732,5.303-2.197l144-144C207.733,251.307,207.733,246.558,204.803,243.629z"/>
	<path d="M55.5,336.433c1.919,0,3.839-0.732,5.303-2.197l112-112c2.929-2.929,2.929-7.678,0-10.606
		c-2.929-2.929-7.678-2.929-10.606,0l-112,112c-2.929,2.929-2.929,7.678,0,10.606C51.661,335.701,53.581,336.433,55.5,336.433z"/>
	<path d="M236.803,275.629c-2.929-2.929-7.678-2.929-10.606,0l-112,112c-2.929,2.929-2.929,7.678,0,10.606
		c1.464,1.464,3.384,2.197,5.303,2.197s3.839-0.732,5.303-2.197l112-112C239.733,283.307,239.733,278.558,236.803,275.629z"/>
	<path d="M268.803,307.63c-2.929-2.929-7.678-2.929-10.606,0l-80,80c-2.929,2.929-2.929,7.678,0,10.606
		c1.464,1.464,3.384,2.197,5.303,2.197s3.839-0.732,5.303-2.197l80-80C271.733,315.308,271.733,310.559,268.803,307.63z"/>
	<path d="M290.197,339.63l-48,48c-2.929,2.929-2.929,7.678,0,10.606c1.464,1.464,3.384,2.197,5.303,2.197s3.839-0.732,5.303-2.197
		l48-48c2.929-2.929,2.929-7.678,0-10.606C297.875,336.701,293.126,336.701,290.197,339.63z"/>
	<path d="M55.5,272.433c1.919,0,3.839-0.732,5.303-2.197l80-80c2.929-2.929,2.929-7.678,0-10.606c-2.929-2.929-7.678-2.929-10.606,0
		l-80,80c-2.929,2.929-2.929,7.678,0,10.606C51.661,271.7,53.581,272.433,55.5,272.433z"/>
	<path d="M55.5,208.433c1.919,0,3.839-0.732,5.303-2.197l48-48c2.929-2.929,2.929-7.678,0-10.606c-2.929-2.929-7.678-2.929-10.606,0
		l-48,48c-2.929,2.929-2.929,7.678,0,10.606C51.661,207.7,53.581,208.433,55.5,208.433z"/>
	<path d="M55.5,144.433c1.919,0,3.839-0.732,5.303-2.197l16-16c2.929-2.929,2.929-7.678,0-10.606c-2.929-2.929-7.678-2.929-10.606,0
		l-16,16c-2.929,2.929-2.929,7.678,0,10.606C51.661,143.7,53.581,144.433,55.5,144.433z"/>
	<path d="M322.198,371.63l-16,16c-2.929,2.929-2.929,7.678,0,10.606c1.464,1.464,3.384,2.197,5.303,2.197s3.839-0.732,5.303-2.197
		l16-16c2.929-2.929,2.929-7.678,0-10.606C329.875,368.701,325.126,368.701,322.198,371.63z"/>
</g>
<g>
</g>
<g>
</g>
<g>
</g>
<g>
</g>
<g>
</g>
<g>
</g>
<g>
</g>
<g>
</g>
<g>
</g>
<g>
</g>
<g>
</g>
<g>
</g>
<g>
</g>
<g>
</g>
<g>
</g>
</svg>
