<?xml version="1.0" encoding="iso-8859-1"?>
<!-- Generator: Adobe Illustrator 18.0.0, SVG Export Plug-In . SVG Version: 6.00 Build 0)  -->
<!DOCTYPE svg PUBLIC "-//W3C//DTD SVG 1.1//EN" "http://www.w3.org/Graphics/SVG/1.1/DTD/svg11.dtd">
<svg version="1.1" id="Capa_1" xmlns="http://www.w3.org/2000/svg" xmlns:xlink="http://www.w3.org/1999/xlink" x="0px" y="0px"
	 viewBox="0 0 55.778 55.778" style="enable-background:new 0 0 55.778 55.778;" xml:space="preserve">
<path d="M53.629,14.333c0.534-0.476,0.878-1.162,0.878-1.933c0-1.654-1.346-3-3-3c-0.004,0-0.007,0.002-0.01,0.002
	c0.001-0.152-0.023-0.304-0.095-0.449c-0.247-0.494-0.847-0.692-1.342-0.447l-1.529,0.765c-0.515-0.44-1.038-0.858-1.569-1.256
	c0.16-0.098,0.315-0.209,0.453-0.347c0.53-0.531,0.822-1.236,0.822-1.987s-0.292-1.456-0.823-1.986
	c-1.272-1.271-3.342-1.271-4.614,0c-0.375,0.375-0.655,0.808-0.841,1.271c-0.801-0.384-1.612-0.724-2.43-1.023l0.616-2.4
	c0.137-0.535-0.185-1.08-0.72-1.218c-0.538-0.137-1.08,0.186-1.217,0.72l-0.585,2.278c-0.304-0.085-0.608-0.165-0.913-0.238
	C36.293,1.319,34.715,0,32.827,0c-0.528,0-0.95,0.413-0.986,0.933C31.306,0.601,30.681,0.4,30.007,0.4
	c-1.416,0-2.632,0.849-3.182,2.062c-0.349-0.117-0.747-0.047-1.025,0.231l-0.37,0.37c-0.953,0.234-1.898,0.522-2.828,0.88
	l-1.166-2.914c-0.206-0.513-0.785-0.764-1.3-0.558c-0.513,0.205-0.762,0.787-0.557,1.3l1.19,2.975
	c-0.783,0.379-1.554,0.803-2.312,1.276C17.903,5.634,17.233,5.4,16.507,5.4c-2.206,0-4,1.794-4,4c0,0.377,0.217,0.692,0.524,0.863
	c-0.694,0.685-1.353,1.391-1.951,2.137H7.507c-0.552,0-1,0.447-1,1s0.448,1,1,1h2.149c-0.468,0.726-0.906,1.48-1.304,2.271
	C7.938,16.498,7.484,16.4,7.007,16.4c-1.93,0-3.5,1.57-3.5,3.5c0,1.576,1.054,2.896,2.489,3.333
	c-0.436,1.778-0.782,3.69-1.035,5.775l-1.006-0.503c-0.495-0.246-1.095-0.047-1.342,0.447s-0.047,1.095,0.447,1.342l1.682,0.841
	c-0.039,0.438-0.075,0.886-0.108,1.338c-1.198-0.231-2.451,0.338-3.021,1.48c-0.798,1.596-0.148,3.543,1.447,4.342
	C3.203,38.366,3.356,38.4,3.506,38.4c0.367,0,0.72-0.202,0.895-0.553c0.248-0.493,0.047-1.095-0.446-1.342
	c-0.61-0.305-0.858-1.049-0.553-1.658c0.194-0.389,0.668-0.551,1.058-0.354c0.037,0.018,0.054,0.044,0.08,0.067
	c0.021,0.123,0.061,0.235,0.122,0.34c0,0.049-0.004,0.098-0.004,0.147c-0.004,0.009-0.001,0.016-0.006,0.025
	c-0.151,0.301-0.119,0.633,0.028,0.909c0.06,1.949,0.312,3.864,0.748,5.725l-2.238,0.746c-0.524,0.174-0.807,0.74-0.632,1.265
	c0.14,0.419,0.53,0.684,0.949,0.684c0.104,0,0.211-0.017,0.316-0.052L5.95,43.64c0.305,0.987,0.667,1.954,1.077,2.9
	c-0.305,0.171-0.52,0.485-0.52,0.86c0,0.553,0.448,1,1,1c0.174,0,0.33,0.057,0.473,0.136c0.164,0.311,0.339,0.617,0.515,0.922
	C8.465,49.761,8.217,50,7.907,50c-0.154,0-0.28-0.126-0.28-0.28c0-0.553-0.448-1-1-1s-1,0.447-1,1c0,1.258,1.023,2.28,2.28,2.28
	c0.676,0,1.287-0.266,1.75-0.69c0.206,0.301,0.414,0.601,0.631,0.895L9.8,52.693c-0.391,0.391-0.391,1.023,0,1.414
	c0.195,0.195,0.451,0.293,0.707,0.293s0.512-0.098,0.707-0.293l0.333-0.333c0.5,0.586,1.019,1.16,1.57,1.711
	c0.195,0.195,0.451,0.293,0.707,0.293s0.512-0.098,0.707-0.293L53.957,16.06c0.391-0.391,0.391-1.023,0-1.414
	C53.85,14.538,53.738,14.438,53.629,14.333z M50.529,10.508c0.056,0.5,0.464,0.893,0.978,0.893c0.551,0,1,0.448,1,1
	c0,0.226-0.13,0.416-0.315,0.518c-0.672-0.775-1.365-1.51-2.079-2.203L50.529,10.508z M44.214,5.107
	c0.246-0.246,0.57-0.369,0.893-0.369S45.754,4.861,46,5.107c0.153,0.153,0.237,0.356,0.237,0.572c0,0.217-0.084,0.42-0.237,0.573
	c-0.175,0.174-0.46,0.174-0.634,0c-0.335-0.335-0.841-0.365-1.227-0.125c-0.128-0.076-0.256-0.15-0.385-0.224
	C43.836,5.613,43.985,5.337,44.214,5.107z M41.743,7.055c0.02,0.114,0.054,0.224,0.084,0.336c-0.983-0.293-1.984-0.53-2.999-0.717
	l0.205-0.797C39.938,6.208,40.843,6.598,41.743,7.055z M36.869,6.259c-0.011,0.042-0.001,0.082-0.006,0.124
	c-0.312-0.036-0.625-0.066-0.94-0.091c0.304-0.331,0.539-0.72,0.693-1.151c0.169,0.042,0.338,0.08,0.508,0.126L36.869,6.259z
	 M26.354,4.967c0.105-0.023,0.21-0.046,0.316-0.068c0.223,0.741,0.676,1.379,1.288,1.825c-1.613,0.314-3.186,0.77-4.71,1.35
	L26.354,4.967z M33.438,4.583c0.391,0.04,0.782,0.091,1.175,0.152C34.366,5.133,33.929,5.4,33.427,5.4
	c-0.087,0-0.165-0.027-0.244-0.049C33.295,5.107,33.384,4.852,33.438,4.583z M30.627,5.262c-0.19,0.087-0.398,0.138-0.62,0.138
	c-0.578,0-1.075-0.332-1.325-0.812c0.602-0.065,1.211-0.105,1.826-0.121c0,0.005-0.001,0.009-0.001,0.013
	C30.507,4.753,30.557,5.012,30.627,5.262z M21.578,6.771c0.013,0.034,0.037,0.059,0.053,0.09L20.8,7.693
	c-0.391,0.391-0.391,1.023,0,1.414c0.008,0.008,0.019,0.01,0.027,0.018c-0.36,0.177-0.717,0.358-1.069,0.55
	c0.088-0.278,0.149-0.569,0.149-0.876c0-0.417-0.086-0.813-0.224-1.182c0.589-0.359,1.202-0.692,1.836-0.996L21.578,6.771z
	 M17.906,8.792c0,0.003,0.001,0.005,0.001,0.008c0,0.507-0.413,0.92-0.92,0.92c-0.087,0-0.166-0.026-0.238-0.062
	C17.124,9.365,17.505,9.075,17.906,8.792z M14.722,8.499c0.313-0.619,0.943-1.04,1.672-1.083c-0.354,0.257-0.694,0.52-1.029,0.785
	C15.114,8.224,14.885,8.325,14.722,8.499z M11.007,28.4c-0.828,0-1.5-0.672-1.5-1.5c0-0.828,0.672-1.5,1.5-1.5s1.5,0.672,1.5,1.5
	C12.507,27.728,11.835,28.4,11.007,28.4z M9.007,38.4c-0.828,0-1.5-0.672-1.5-1.5c0-0.828,0.672-1.5,1.5-1.5s1.5,0.672,1.5,1.5
	C10.507,37.728,9.835,38.4,9.007,38.4z M10.068,18.239c-0.052-0.094-0.094-0.195-0.154-0.284c0.616-1.28,1.339-2.452,2.151-3.555
	h1.31c-0.085,0.083-0.173,0.161-0.257,0.245C11.993,15.77,10.979,16.974,10.068,18.239z M5.507,19.9c0-0.827,0.673-1.5,1.5-1.5
	c0.179,0,0.349,0.037,0.509,0.095c-0.369,0.893-0.696,1.837-0.994,2.818C5.934,21.11,5.507,20.557,5.507,19.9z M12.507,45.4
	c-0.552,0-1-0.448-1-1c0-0.552,0.448-1,1-1s1,0.448,1,1C13.507,44.952,13.059,45.4,12.507,45.4z M14.499,13.359
	c-0.02-0.472-0.367-0.843-0.82-0.924c0.474-0.509,0.981-0.999,1.511-1.478c0.371,0.376,0.853,0.639,1.397,0.726
	C15.868,12.207,15.173,12.766,14.499,13.359z M15.507,35.4c0-0.552,0.448-1,1-1s1,0.448,1,1c0,0.552-0.448,1-1,1
	S15.507,35.952,15.507,35.4z M18.007,44.4c-0.828,0-1.5-0.672-1.5-1.5c0-0.828,0.672-1.5,1.5-1.5s1.5,0.672,1.5,1.5
	C19.507,43.728,18.835,44.4,18.007,44.4z M18.007,28.4c-1.381,0-2.5-1.119-2.5-2.5c0-1.381,1.119-2.5,2.5-2.5s2.5,1.119,2.5,2.5
	C20.507,27.281,19.388,28.4,18.007,28.4z M19.007,19.4c-0.828,0-1.5-0.672-1.5-1.5c0-0.828,0.672-1.5,1.5-1.5s1.5,0.672,1.5,1.5
	C20.507,18.728,19.835,19.4,19.007,19.4z M22.507,34.4c-0.552,0-1-0.448-1-1c0-0.552,0.448-1,1-1s1,0.448,1,1
	C23.507,33.952,23.059,34.4,22.507,34.4z M24.507,24.4c-0.552,0-1-0.448-1-1c0-0.552,0.448-1,1-1s1,0.448,1,1
	C25.507,23.952,25.059,24.4,24.507,24.4z M29.007,35.4c-1.381,0-2.5-1.119-2.5-2.5c0-1.381,1.119-2.5,2.5-2.5s2.5,1.119,2.5,2.5
	C31.507,34.281,30.388,35.4,29.007,35.4z M30.007,15.4c-1.381,0-2.5-1.119-2.5-2.5c0-1.381,1.119-2.5,2.5-2.5s2.5,1.119,2.5,2.5
	C32.507,14.281,31.388,15.4,30.007,15.4z M35.007,22.4c-0.828,0-1.5-0.672-1.5-1.5c0-0.828,0.672-1.5,1.5-1.5s1.5,0.672,1.5,1.5
	C36.507,21.728,35.835,22.4,35.007,22.4z M44.507,17.4c-0.552,0-1-0.448-1-1c0-0.552,0.448-1,1-1s1,0.448,1,1
	C45.507,16.952,45.059,17.4,44.507,17.4z"/>
<g>
</g>
<g>
</g>
<g>
</g>
<g>
</g>
<g>
</g>
<g>
</g>
<g>
</g>
<g>
</g>
<g>
</g>
<g>
</g>
<g>
</g>
<g>
</g>
<g>
</g>
<g>
</g>
<g>
</g>
</svg>
