<svg width="120.001px" height="120.001px" viewBox="0 -1.81 120.001 120.001" xmlns="http://www.w3.org/2000/svg">
  <path id="_0405-vegetables" data-name="0405-vegetables" d="M1009.333,804.644c-2.184-.188-4.345-.4-6.38-.739-.778-.367-2.167-.122-2.945-.49a7.617,7.617,0,0,1-2.944-.734,20.939,20.939,0,0,1-9.081-5.4,37.6,37.6,0,0,1-5.889-8.343,58.789,58.789,0,0,1-3.435-11.041v-4.664a17.206,17.206,0,0,1,1.471-4.663c-.127-.438-.393-.287-.68-.136a.749.749,0,0,1-.545.136,2.2,2.2,0,0,1-.737,0c-.458-.047-.916-.094-.982.249a2.078,2.078,0,0,0-1.472-.247,42.739,42.739,0,0,1-11.042-4.417,46.872,46.872,0,0,1-8.343-7.361,36.552,36.552,0,0,1-10.552-20.613v-3.928c.474-5.251,3.239-8.212,5.644-11.533,1.213-.506,2.242-1.193,3.436-1.718-.381-1.747-.982-3.272-1.228-5.153a8.877,8.877,0,0,1,2.7-7.362c.967-.341,1.4-1.218,2.7-1.228a31.309,31.309,0,0,1-.981-8.589c.167-2.12,1.1-3.482,1.716-5.153a8.81,8.81,0,0,0,1.963-1.963c.573-.082,1.057-.252,1.228-.736a2.008,2.008,0,0,0,1.472-.49h3.927a2,2,0,0,0,1.472.49,3.093,3.093,0,0,0,1.718.982c2.1,2.321,4.5,4.335,5.4,7.853,1.233-.158,1.783-1,2.944-1.227a1.382,1.382,0,0,0,.982-.246,14.366,14.366,0,0,1,4.663.49c1.026,1.1,2.449,1.8,2.944,3.436.905,1.222,1.087,3.167,1.228,5.153.6.461,1.681.445,2.453.736a.672.672,0,0,0,.736.491,13.951,13.951,0,0,1,2.21,3.434c.611-.036.073-.83,0-.98v-5.155c1.318-5.143,4.016-8.908,10.061-9.324a10.642,10.642,0,0,1,4.417,1.473c.662-.074.439-1.033.981-1.229-.061-.879.737-.9.737-1.717.557-.178.734-.738.981-1.227,2.289-1.965,4.662-3.845,9.325-3.435.034.276.359.262.684.248.1,0,.205-.009.3,0a4.662,4.662,0,0,0,1.716.982c1.749,1.852,2.711,4.488,2.945,7.852-.569.331.047,1.845-.735,1.964-.359.54-.651,1.149-1.719.982-1.55-.331-1.535-2.228-1.471-4.172a12.429,12.429,0,0,0-.735-2.454c-.184-.963-1.111-1.182-1.719-1.717-5.121-.05-6.671,3.471-8.589,6.626-.091.973.225,2.352-.246,2.945-.9.725-1.215-.783-1.962-.981a23.231,23.231,0,0,0-1.964-1.474,12.133,12.133,0,0,0-5.153,0c-4.178,1.958-5.453,6.818-5.644,12.761-.748.011-.954-.518-1.473-.736v-.491a.248.248,0,0,0,0,.491c.179,1.54.581,2.857.737,4.418a25.467,25.467,0,0,0-.246,4.417,2.249,2.249,0,0,0,1.136-.256,2.2,2.2,0,0,1,1.318-.237,8.626,8.626,0,0,0,2.454.247c1.314,1.138,3.071,1.836,4.416,2.945.735-.162-.235-.525,0-.982v-1.473c.333.088.289-.2.245-.49s-.086-.579.247-.49c-.179-.75.424-.722.245-1.471a12.2,12.2,0,0,0,.982-2.455c.068-.559-.06-.923-.491-.981-.133-.356.287-1.268-.245-1.228.434-1.885-.965-3.04-.246-4.416,1.444.6,1.5,2.586,2.208,3.926,2.034-2.221,2.8-5.7,6.872-5.888.456-.115.548.119.471.354-.068.207-.271.415-.471.381-.073.5-.665.482-.737.982-.393.751-1.3.988-1.471,1.964,2-.182,5.521-.912,5.89,1.227.049,2.094-2.542,1.549-4.172,1.963h-3.19c-.886,1.16-1.035,3.054-1.717,4.417-.153.913-.585,1.542-.737,2.453-.291.773-.275,1.851-.737,2.454-.027.872-.812.987-1.717.981.292.936.9,1.557,1.228,2.455.459.767.5,1.952.982,2.7-.132,1.673.532,2.769,0,4.172a3.474,3.474,0,0,0,2.475.146,6.916,6.916,0,0,1,1.451-.146,25.667,25.667,0,0,1-1.471-6.135,9.782,9.782,0,0,1,1.471-4.909,9.49,9.49,0,0,1,3.681-3.434c.536-.32.858-.706,1.472-.737.257-.013.14-.2.246-.245a15.875,15.875,0,0,1,4.908-.983c1.177.049,2.077.378,3.19.491,1.2.685,2.3,1.461,3.436,2.209,1.958,2.623,3.87,5.29,4.171,9.572,2.021-.434,3.251-1.657,5.153-2.21.523-.6-.547-1.085-.983-1.472-.354-.709-1.179-.947-1.716-1.473-1.08-.965-2.731-1.358-3.19-2.944-.054-1.281.855-1.6,1.472-2.208,2.476-.105,3.76.982,5.153,1.963,1.611.841,2.58,2.327,3.926,3.434a21.667,21.667,0,0,0,2.209,3.927,47.7,47.7,0,0,1-2.7,21.839,20.745,20.745,0,0,0,6.139.388c2.795-.091,5.517-.183,7.358,1.085,1.133-1.567-.016-5.415.736-7.362,1.166-1.325,4.331-1.109,6.134-.49,1.813,2.668,2.335,7.439,1.719,11.776a15.821,15.821,0,0,0-1.227,3.192c.362,1.517.868,2.894,1.227,4.418.109,3.023.089,3.394,0,6.378a34.263,34.263,0,0,1-1.964,7.117,37.077,37.077,0,0,1-2.7,6.379c-.5.072-.481.664-.982.736-.287.367-1.019.289-.981.983-.856.371-.916,1.539-2.454,1.226-1.452-.1-1.7-1.409-1.963-2.7-.982.158-1.356,1.155-1.963,1.717a13.431,13.431,0,0,1-2.208,1.719,18.1,18.1,0,0,1-4.909,2.945c-1.47,1.147-3.577,1.659-5.4,2.453-1.526,1.092-3.477,1.759-4.909,2.945-3.512,1.641-6.708,3.6-10.306,5.153a31.728,31.728,0,0,1-5.4,2.454,14.144,14.144,0,0,0-2.944.98,5.591,5.591,0,0,0-1.473.49c-.43.225-1.224.086-1.471.493a14.982,14.982,0,0,0-3.19.246Zm2.813-12.434c.8,1.054,1.695,2.108,3.812,1.635.555-.676-.373-1.441-.49-2.209a15.1,15.1,0,0,1-.245-3.19c.538-.279.814-.82,1.471-.98,1.445.271,1.9,1.539,2.7,2.453a2.283,2.283,0,0,0,.982,1.472,1.965,1.965,0,0,0,1.227,1.472,26.735,26.735,0,0,0,3.928-.736c-.582-1.544-.1-3.1,1.471-3.19.367.289,1.005.306,1.228.735.291.365.212,1.1.982.983,2.925-1.33,5.79-2.716,8.834-3.926,2.446-1.806,5.556-2.95,7.853-4.909a1.212,1.212,0,0,0,.9-.1,1.285,1.285,0,0,1,.573-.144,14.792,14.792,0,0,1,3.19-2.209c.564-1.234,2.3-1.3,1.965-3.433-1.921.451-2.368,2.375-4.417,2.7a4.31,4.31,0,0,1-2.946-2.207,28.435,28.435,0,0,1,.246-5.4,14.886,14.886,0,0,1-6.381.245c-.631-.432-1.057-1.067-1.717-1.473a2.641,2.641,0,0,1-1.471-1.963c.413-1.8,2.117-2.3,2.945-3.681.73-.333,1.018-1.108,1.472-1.717.352-.594,1.419-1.346.981-1.963-2.58-.284-4.1-1.631-5.645-2.945h-.735c-.051.274-.272.382-.491.49-2.506,1.584-4.954,3.227-7.607,4.664a34.861,34.861,0,0,1-10.306,1.963,26.379,26.379,0,0,1-7.362-1.227h-4.418c-.569.33-1.392.406-1.963.735a20.317,20.317,0,0,0-13.741,5.153,21.036,21.036,0,0,0-2.946,7.117v2.453c.229.833.328,1.8.491,2.7.855,1.354,1.483,2.934,2.454,4.172,1.172,1.117,1.923,2.659,3.68,3.19-.509-2.209-.28-4.969,1.963-5.153a2.737,2.737,0,0,1,1.964,1.227c.279.866.271,2.02.491,2.946.4.581.551,1.409.981,1.963.148.6.609,2.154,1.227,1.472-.562-.419-.091-1.873-.245-2.7.622-.523.625-1.665,1.717-1.717a5.766,5.766,0,0,1,1.963,3.19c1.174,1.033,1.777,2.639,2.945,3.68h2.7c-.149-.916-.628-2.682.246-3.19a3.414,3.414,0,0,1,1.077-.2C1010.872,790.459,1011.48,791.334,1012.146,792.21Zm42.584-21.185c.932.868,1.123,2.477.981,4.416.726.992.834,2.6,1.229,3.925,1.022-.2.836-1.616,1.472-2.207.2-1.109.709-1.908.982-2.945a29.1,29.1,0,0,0,1.472-6.135c.065-2.6.036-5.107-.736-6.871-1.453.266-2.11,1.326-3.926,1.227-.315-.422-1.169-.305-1.227-.981a10.229,10.229,0,0,0-.247-2.945c.23-1,.922-1.534.981-2.7-.731,0-.833-.639-1.471-.738-.448-.37-1.376-.26-1.718-.735a6.389,6.389,0,0,1-2.015-.1,7.592,7.592,0,0,0-1.421-.143,21.59,21.59,0,0,1-5.04.247c-1.043-.025-2.086-.049-3.056,0a4.72,4.72,0,0,1-1.116,0c-.661-.05-1.324-.1-1.586.248.661.651,1.653.967,2.21,1.718,1.741.467,3.784.633,4.662,1.963.97,4.047-1.391,6.531-2.943,8.834,1.6-.2,2.609-.988,3.926-1.473,1.1-.3,3.509-1.029,4.415,0,.012,1.567-.906,2.2-1.472,3.192-.067.832.19,1.988-.245,2.453.153.745-.315,2.112.245,2.454,1.446-1.147,2.462-2.725,5.053-2.725C1054.328,771,1054.525,771.007,1054.731,771.025ZM960.5,755.072a10.678,10.678,0,0,0,2.209,1.719c.264.507.762.421,1.227.736.357.244.636.75.981.982.22.146.547.127.737.246.667.414,1.164,1.113,1.963,1.225a14.536,14.536,0,0,0,4.908,2.455c.189.047.182.222.247.246a19.274,19.274,0,0,0,1.963.49c.194.049.172.217.245.246a16.125,16.125,0,0,0,4.417.735c.221.431.859.449,1.227.738.707.029.426,1.045,1.226.98,4.464-5.189,10.039-9.266,19.142-9.816,5.242.238,8.924,2.037,14.234,2.209h5.889c4.378-.528,7.41-2.4,11.778-2.946.509-.537-.12-1.32-.49-1.716a7.107,7.107,0,0,1,.246-2.7c.847-.806,2.533-.774,4.218-.742.481.009.962.018,1.425.008,1.974-5.882,3.65-12.057,3.436-20.123-2.554.963-4.523,2.512-7.115,3.436-2.9.7-5.351,1.847-8.59,2.209-.43.387-1.307.328-1.964.491a16.244,16.244,0,0,1-2.208.49c-1.582.219-3.021.579-4.662.736-3.029.57-6.6.6-9.816.982H993.137a1.248,1.248,0,0,1-.794-.136,1.254,1.254,0,0,0-.924-.109,123.728,123.728,0,0,1-22.576-2.7,81.247,81.247,0,0,1-9.815-2.7,12.9,12.9,0,0,0-2.209-.981,10.644,10.644,0,0,0-2.209-.981,2.415,2.415,0,0,0-2.21-.982c-.779-.365-1.107-1.184-2.207-1.229v.983a22.813,22.813,0,0,0,3.434,4.417c1.574,1.044,3.485,1.749,5.153,2.7a16.068,16.068,0,0,1,2.7,1.227c.778.616,2.146.635,1.963,2.21-.687,1.206-2.746.562-4.172.49-.3-.517-1.477-.157-1.718-.734a3.849,3.849,0,0,1-1.963-.737,16.1,16.1,0,0,1-3.434-1.718c-.54-.279-.815-.82-1.474-.982-.253-.436-.973-1.472-1.227-.49.55.106.1,1.211.246,1.718.446.29.194,1.28.492,1.718a28.112,28.112,0,0,0,7.853,4.172c1.278.767,3.145.942,4.416,1.716a5.1,5.1,0,0,1,2.209.736,2.809,2.809,0,0,1,1.718,1.473c-.467,1.006-1.6,1.342-3.19,1.226-1.344-.209-2.853-.255-3.682-.982-2.8-.308-4.361-1.853-6.87-2.453a13.861,13.861,0,0,0,2.453,3.927c2.434.428,4.506,1.22,6.872,1.716,1.166.224,2.227.556,3.434.738.876.6,2.193.752,2.21,2.208-2.9,1.291-6.516-.146-9.08-.735C958.742,754.212,959.775,754.488,960.5,755.072Zm101.1-3.68c-.078.576-.388.921-.245,1.718-.2.177-.659,1.7.245,1.471.8-1.413.392-4.024.491-6.134-.405,0-.138-.68-.491-.737Zm-75.826-29.939c-.458,1.833-.707,3.874-1.228,5.646.391,1.981.31,4.433.982,6.135a3.194,3.194,0,0,0,2.7-1.473c-.839-5.25,1.427-9.1,5.153-10.552-.094-1.164-.68-1.289-.245-2.453-.022-.388-.626-.193-.491-.737.133-3.9-.588-6.938-2.454-8.834a4.474,4.474,0,0,0-1.485.051,2.283,2.283,0,0,1-1.46-.051c-.5-.806-.132-2.486-.244-3.681a7.038,7.038,0,0,0-3.436-5.152,15.616,15.616,0,0,0-3.134.1,19.528,19.528,0,0,1-2.265.144,2.008,2.008,0,0,1-1.471.49c-.425.311-.643.83-1.473.735-.49-3.434-2.93-4.921-4.417-7.361a10.4,10.4,0,0,1-2.208-1.472c-.29-.04-.7.041-.737-.246a6.611,6.611,0,0,0-3.435.492,14.129,14.129,0,0,0-2.208,3.19V702.8a2.1,2.1,0,0,1,.245,1.474,11.871,11.871,0,0,1,1.472,2.944c.463.026.171.811.736.735-.073.647.951.193.735.983a4.334,4.334,0,0,1-2.4-.1,6.586,6.586,0,0,0-2.748-.147,4.835,4.835,0,0,1-1.718.735c-.248.489-.424,1.049-.982,1.228a14.452,14.452,0,0,0,.246,5.89,27.567,27.567,0,0,0,4.172,5.153c1.085.058,2.113.176,2.208,1.227.436,1.743-1.231,1.388-1.227,2.7a9.635,9.635,0,0,1,.246,3.681,87.188,87.188,0,0,0,16.686,3.19c.182-.835-.9-.4-.98-.981-.435-.22-.716-.591-1.228-.735-.422-.887-1.683-.935-1.472-2.455,1.057-1.794,3.3.064,4.662.245a12.462,12.462,0,0,0-2.208-5.4,24.563,24.563,0,0,1-6.626-.981c-1.773-.762-4.476-.6-4.417-3.19,1.68-.62,3.81,0,5.644,0,.314.341,1.158.15,1.473.49a.846.846,0,0,1,.734.117c.306.158.562.315.737-.117-.544-.681-1.123-1.332-1.718-1.962-.615-.695-.946-1.671-1.716-2.209-.683-1.313-3.3-3.381-1.473-4.907,2.068-.187,2.181,1.58,3.681,1.963.911-1.707,1.224-4.01,3.927-3.927,1.355,2.349-1.027,4.516-1.228,6.871a12.617,12.617,0,0,0,2.208,3.19c.733,1.067,1.19,2.408,2.209,3.19.592-2.353.915-4.974,3.435-5.4C987.252,717.042,986.19,720.018,985.776,721.453Zm11.533,5.4c.345,1.618,1.713,2.213,3.189,2.7h1.718c.423-.642,1.6-.533,1.718-1.472.221-1.121-.408-1.391-.49-2.209a5.578,5.578,0,0,0-3.654-1.267C998.377,724.6,997.154,725.184,997.309,726.853Zm25.52-5.153c-.473,1.736-2.255,3.649-.981,5.644,2.8.268,4.364-.708,6.38-1.227-.418-2.038-1.922-2.985-3.19-4.172a2.066,2.066,0,0,1-1.042-.133,2.271,2.271,0,0,0-.763-.152A2.131,2.131,0,0,0,1022.829,721.7Zm-66.01,5.4h.49v-.491h-.49Zm-1.963-1.718v-1.228C953.712,724.157,953.712,725.376,954.856,725.38Zm26.5,26.5c-1.975-.232-4.18-.236-4.909-1.716a1.644,1.644,0,0,1,.981-1.963c2.69.6,9.156-.723,9.327,2.7-.451.935-1.7,1.232-3.043,1.232A12.411,12.411,0,0,1,981.358,751.882Zm11.288-3.679c-2.291-.409-4.727-.673-6.87-1.228a21.171,21.171,0,0,0-3.436-.737c-.224-.429-.86-.449-1.227-.734,0-.368-.913-1.005-.247-1.228-.169-.66.508-.473.737-.734,4.847-.267,8.462.7,13.005.734.29.446,1.28.193,1.718.491.138.6.95.523.737,1.471.128,1.769-1.294,1.988-2.934,1.988C993.643,748.225,993.137,748.206,992.646,748.2Zm37.546-30.184c.12-.775-.443-.866-.245-1.718a16.26,16.26,0,0,0-.492-3.19,13,13,0,0,0-1.471-5.889c-.527-.946-1.53-1.416-2.209-2.209-1.337-.464-3.015-.583-3.436-1.963-.169-.824.411-.9.982-.983.024-.627.914-.393,1.228-.735h2.208c.039.288.448.207.736.246a4.7,4.7,0,0,0,1.718.982,13.151,13.151,0,0,1,3.926,7.606v3.682c-.459,2.076-.231,4.84-2.209,5.4h-.053C1030.238,719.246,1030.219,718.627,1030.192,718.018Z" transform="translate(-945.776 -688.269)"/>
</svg>
