<?xml version="1.0" encoding="iso-8859-1"?>
<!-- Generator: Adobe Illustrator 19.1.0, SVG Export Plug-In . SVG Version: 6.00 Build 0)  -->
<svg version="1.1" id="Capa_1" xmlns="http://www.w3.org/2000/svg" xmlns:xlink="http://www.w3.org/1999/xlink" x="0px" y="0px"
	 viewBox="0 0 378.947 378.947" style="enable-background:new 0 0 378.947 378.947;" xml:space="preserve">
<g id="XMLID_233_">
	<rect id="XMLID_235_" x="174.473" y="12.009" width="30" height="30"/>
	<path d="M140.079,31.401l20,20l-21.213,21.213l-20-20L140.079,31.401z"/>
	<path d="M238.865,31.4l21.213,21.213l-20,20L218.865,51.4L238.865,31.4z"/>
	<path id="XMLID_238_" d="M366.178,304.51l-23.932,11.256l-35.265-74.977c3.535-2.565,6.866-5.408,9.953-8.538
		c13.69-13.878,20.41-31.585,19.433-51.207c-0.853-17.123-7.834-34.974-19.66-50.265L278.27,83.155l-88.797,41.764l-88.797-41.764
		l-38.245,47.381l-0.193,0.245c-11.826,15.291-18.808,33.142-19.661,50.265c-0.977,19.621,5.743,37.328,19.433,51.207
		c3.087,3.13,6.418,5.973,9.953,8.538l-35.265,74.977L12.769,304.51L0,331.658l75.01,35.28l12.769-27.147l-23.931-11.256
		l35.265-74.977c4.23,1.087,8.544,1.84,12.924,2.222c2.074,0.181,4.165,0.272,6.214,0.273c0.001,0,0,0,0.001,0
		c17.986,0,34.467-6.88,47.657-19.896c11.222-11.072,19.332-25.857,23.565-42.869c4.233,17.011,12.342,31.796,23.564,42.869
		c13.191,13.016,29.672,19.896,47.658,19.896c2.05,0,4.141-0.092,6.215-0.273c4.38-0.382,8.694-1.135,12.924-2.222l35.265,74.977
		l-23.931,11.256l12.768,27.147l75.01-35.28L366.178,304.51z M269.721,120.328l13.785,17.078l-67.73,35.119l-4.968-24.488
		L269.721,120.328z M109.225,120.328l58.914,27.709l-4.969,24.488l-67.731-35.12L109.225,120.328z"/>
</g>
<g>
</g>
<g>
</g>
<g>
</g>
<g>
</g>
<g>
</g>
<g>
</g>
<g>
</g>
<g>
</g>
<g>
</g>
<g>
</g>
<g>
</g>
<g>
</g>
<g>
</g>
<g>
</g>
<g>
</g>
</svg>
